<?xml version="1.0" encoding="utf-8"?>
<!-- Generator: Adobe Illustrator 16.0.0, SVG Export Plug-In . SVG Version: 6.00 Build 0)  -->
<!DOCTYPE svg PUBLIC "-//W3C//DTD SVG 1.1//EN" "http://www.w3.org/Graphics/SVG/1.1/DTD/svg11.dtd">
<svg version="1.1" id="Layer_1" xmlns="http://www.w3.org/2000/svg" xmlns:xlink="http://www.w3.org/1999/xlink" x="0px" y="0px"
	 width="165px" height="50px" viewBox="0 0 165 50" enable-background="new 0 0 165 50" xml:space="preserve">
<g id="symbol" transform="translate(138.99996948242188, 28.719901302856385) scale(1.07)">
	<g>
		<g transform="scale(2.4868213947995925)">
			<g>
				<g>
					<polygon fill="#FFFFFF" points="-5.333,5.786 -4.98,5.967 -4.98,-3.86 -5.333,-4.068 					"/>
				</g>
			</g>
			<g>
				<g>
					<polygon fill="#FFFFFF" points="-0.282,-5.735 -0.261,4.097 -0.014,3.983 0.194,4.016 0.194,-5.796 0.025,-5.854 					"/>
				</g>
			</g>
			<g>
				<g>
					<polygon fill="#FFFFFF" points="5.548,-4.268 5.093,-4.02 5.093,5.981 5.548,5.713 					"/>
				</g>
			</g>
			<g>
				<g>
					<g>
						<polyline fill="none" points="1.272,-5.703 0.025,-6.213 -4.986,-4.164 -8.468,-6.054 -8.468,4.375 -4.928,6.296 
							-0.014,4.294 0.064,4.294 1.259,4.776 4.978,6.296 8.519,4.375 8.519,-6.054 5.035,-4.164 3.783,-4.675 						"/>
					</g>
				</g>
				<g>
					<g>
						<polygon fill="#FFFFFF" points="4.978,-5.227 4.138,-5.571 3.783,-4.675 5.035,-4.164 8.519,-6.054 8.519,4.375 4.978,6.296 
							1.259,4.776 0.064,4.294 -0.014,4.294 -4.928,6.296 -8.468,4.375 -8.468,-6.054 -4.986,-4.164 0.025,-6.213 1.272,-5.703 
							0.773,-6.948 0.025,-7.254 -4.928,-5.227 -9.432,-7.673 -9.432,4.948 -4.986,7.361 0.025,5.312 5.035,7.361 9.481,4.948 
							9.481,-7.673 						"/>
					</g>
				</g>
			</g>
			<g>
				<g>
					<path fill="#FFFFFF" d="M2.736-10.237c-1.079,0-1.955,0.875-1.955,1.955c0,0.201,0.04,0.39,0.095,0.573H0.869l1.867,4.663
						L4.65-7.871H4.647c0.028-0.132,0.045-0.27,0.045-0.411C4.691-9.362,3.817-10.237,2.736-10.237z M2.736-7.352
						c-0.461,0-0.837-0.375-0.837-0.837c0-0.462,0.376-0.838,0.837-0.838c0.462,0,0.838,0.375,0.838,0.838
						C3.574-7.728,3.198-7.352,2.736-7.352z"/>
				</g>
			</g>
		</g>
	</g>
</g>
<g enable-background="new    ">
	<g>
		<path fill="none" stroke="#FFFFFF" stroke-width="1.5" stroke-miterlimit="10" d="M13.599,16.651v1.017h-5.62v18.633H7.177V17.667
			h-5.62v-1.017H13.599z"/>
		<path fill="none" stroke="#FFFFFF" stroke-width="1.5" stroke-miterlimit="10" d="M26.311,36.301h-0.803v-9.824h-8.028v9.824
			h-0.803v-19.65h0.803v8.809h8.028v-8.809h0.803V36.301z"/>
		<path fill="none" stroke="#FFFFFF" stroke-width="1.5" stroke-miterlimit="10" d="M41.778,34.302
			c-0.981,1.559-2.587,2.338-4.817,2.338s-3.827-0.802-4.79-2.405s-1.445-4.189-1.445-7.758c0-3.569,0.482-6.155,1.445-7.759
			c0.963-1.603,2.56-2.405,4.79-2.405c2.587,0,4.344,1.073,5.272,3.219l-6.556,6.946h-1.258l6.771-7.149
			c-0.785-1.332-2.194-1.999-4.229-1.999c-0.892,0-1.642,0.119-2.248,0.355c-0.607,0.237-1.164,0.678-1.673,1.321
			c-0.508,0.644-0.888,1.582-1.137,2.812c-0.25,1.231-0.375,2.784-0.375,4.659s0.125,3.427,0.375,4.658
			c0.25,1.23,0.629,2.168,1.137,2.812c0.509,0.644,1.066,1.084,1.673,1.321c0.606,0.236,1.355,0.355,2.248,0.355
			c2.034,0,3.443-0.666,4.229-1.998L41.778,34.302z"/>
		<path fill="none" stroke="#FFFFFF" stroke-width="1.5" stroke-miterlimit="10" d="M63.588,36.301h-0.803v-9.824h-8.028v9.824
			h-0.803v-19.65h0.803v8.809h8.028v-8.809h0.803V36.301z"/>
		<path fill="none" stroke="#FFFFFF" stroke-width="1.5" stroke-miterlimit="10" d="M70.09,35.284h8.724l-5.486-16.363l-5.834,17.38
			h-0.856l6.69-19.989l6.69,19.989H70.09V35.284z"/>
		<path fill="none" stroke="#FFFFFF" stroke-width="1.5" stroke-miterlimit="10" d="M89.707,28.982l-0.402-0.881l1.499-1.084
			c1.231-0.857,1.847-2.224,1.847-4.099c0-3.5-2.105-5.251-6.316-5.251h-2.461v25.409H83.07V16.651h3.264
			c2.355,0,4.131,0.548,5.326,1.643c1.195,1.096,1.793,2.637,1.793,4.625c0,2.259-0.75,3.919-2.248,4.98L89.707,28.982z"/>
		<path fill="none" stroke="#FFFFFF" stroke-width="1.5" stroke-miterlimit="10" d="M101.32,16.244c2.212,0,3.782,0.622,4.71,1.864
			l-0.535,0.745c-0.856-1.062-2.212-1.592-4.067-1.592c-2.783,0-4.176,1.401-4.176,4.201c0,1.084,0.34,1.948,1.018,2.592
			c0.678,0.644,1.505,1.136,2.48,1.476c0.977,0.34,1.949,0.695,2.918,1.067c0.968,0.372,1.791,0.97,2.469,1.794
			s1.018,1.902,1.018,3.234c0,1.559-0.508,2.801-1.525,3.727c-1.018,0.927-2.488,1.39-4.416,1.39c-0.945,0-1.877-0.158-2.796-0.474
			c-0.919-0.316-1.602-0.779-2.048-1.39l0.535-0.745c0.91,1.062,2.311,1.592,4.202,1.592c1.729,0,3.037-0.406,3.921-1.219
			c0.883-0.814,1.324-1.762,1.324-2.847c0-1.129-0.34-2.044-1.018-2.744s-1.506-1.227-2.484-1.579
			c-0.98-0.353-1.952-0.713-2.918-1.084c-0.965-0.37-1.787-0.95-2.465-1.741c-0.678-0.79-1.018-1.83-1.018-3.117
			c0-1.739,0.46-3.032,1.379-3.879C98.746,16.668,99.91,16.244,101.32,16.244z"/>
	</g>
</g>
</svg>
