<?xml version="1.0" encoding="utf-8"?>
<!-- Generator: Adobe Illustrator 16.0.0, SVG Export Plug-In . SVG Version: 6.00 Build 0)  -->
<!DOCTYPE svg PUBLIC "-//W3C//DTD SVG 1.1//EN" "http://www.w3.org/Graphics/SVG/1.1/DTD/svg11.dtd">
<svg version="1.1" id="Layer_1" xmlns="http://www.w3.org/2000/svg" xmlns:xlink="http://www.w3.org/1999/xlink" x="0px" y="0px"
	 width="32.5px" height="50px" viewBox="0 0 32.5 50" enable-background="new 0 0 32.5 50" xml:space="preserve">
<g>
	<path fill="#7040C4" d="M16.25,50.057L16.25,50.057c0,0,16.092-24.711,16.092-32.873c0-11.955-8.16-17.127-16.092-17.242
		c-7.931,0-16.092,5.173-16.092,17.242C0.158,25.345,16.25,50.057,16.25,50.057L16.25,50.057z"/>
</g>
<circle fill="#4D3199" cx="16.25" cy="16.458" r="13.958"/>
<g opacity="0.8">
	<g>
		<circle fill="#FFFFFF" cx="13.393" cy="8.848" r="1.96"/>
		<circle fill="#FFFFFF" cx="18.465" cy="8.848" r="1.96"/>
		<path fill="#FFFFFF" d="M20.182,21.84c-0.02,0.002-0.039,0.003-0.059,0.003c-0.42,0-0.761-0.342-0.761-0.761
			c0-2.374,1.489-3.362,1.552-3.402c0.016-0.01,0.028-0.017,0.043-0.023c0-0.002,0-0.002,0.002-0.002
			c-0.002-0.01-0.003-0.018-0.006-0.028c-0.326-0.276-0.535-0.69-0.535-1.151c0-0.222,0.049-0.432,0.135-0.622
			c-0.031-0.134-0.059-0.248-0.08-0.335v-1.467c0.17,0.352,0.301,0.796,0.378,1.367c0.274-0.279,0.655-0.452,1.077-0.452
			c0.139,0,0.271,0.02,0.398,0.054c-0.355-2.191-1.438-3.056-2.548-3.735c-0.038-0.023-0.08-0.042-0.122-0.057
			c-0.218-0.145-0.463-0.25-0.711-0.31c-0.002-0.001-0.004-0.001-0.006-0.001l-0.473,0.498l-0.489-0.493
			c-0.271,0.068-0.538,0.188-0.769,0.354c-0.008,0.003-0.014,0.007-0.021,0.01c-0.434,0.266-0.865,0.56-1.249,0.953
			c-0.383-0.408-0.825-0.728-1.281-1.007c-0.068-0.042-0.139-0.068-0.212-0.086c-0.178-0.099-0.37-0.175-0.566-0.223l-0.487,0.492
			l-0.474-0.498c-0.002,0-0.003,0-0.005,0c-0.25,0.061-0.494,0.167-0.712,0.311c-0.042,0.015-0.083,0.035-0.121,0.058
			c-1.163,0.712-2.224,1.693-2.415,3.851c0.208-0.109,0.441-0.17,0.691-0.17c0.304,0,0.589,0.092,0.825,0.249
			c0.036-0.38,0.106-0.702,0.205-0.978v1.144c0.284,0.272,0.462,0.655,0.462,1.078c0,0.381-0.143,0.726-0.38,0.99
			c0.01,0.025,0.017,0.052,0.027,0.076c-0.005,0.039-0.008,0.079-0.008,0.119v0.087c0.006,0.006,0.015,0.012,0.021,0.017
			c0.277,0.205,1.458,1.203,1.458,3.305c0,0.415-0.339,0.754-0.754,0.754c-0.16,0-0.308-0.05-0.428-0.134
			c-0.007,0.014-0.012,0.027-0.019,0.04v3.653c0,0.067-0.008,0.131-0.023,0.193c0.164,0.17,0.392,0.273,0.643,0.273
			c0.498-0.001,0.899-0.403,0.899-0.899v-6.255c0.035,0.001,0.071,0.003,0.105,0.003c0.009,0,0.015,0,0.022,0v6.252
			c0,0.496,0.403,0.899,0.9,0.899c0.498,0,0.899-0.403,0.899-0.899v-7.241c0.011-0.023,0.023-0.044,0.033-0.065
			c0.012,0,0.022,0.003,0.035,0.003c0.003,0,0.007,0,0.01,0c0.225-0.003,0.427-0.104,0.564-0.262
			c0.048,0.045,0.103,0.081,0.162,0.111c-0.315,1.425-0.666,3.092-0.668,3.458c-0.002,0.299,0.537,0.556,1.3,0.717v3.284
			c0,0.496,0.401,0.9,0.899,0.9c0.496,0,0.9-0.403,0.9-0.9v-3.103c0.041,0,0.084,0,0.127,0l-0.002,3.102
			c0,0.496,0.402,0.899,0.9,0.9c0.496,0,0.9-0.403,0.9-0.9v-1.499H19.9L20.182,21.84z"/>
		<circle fill="#FFFFFF" cx="10.408" cy="16.437" r="1.147"/>
		<path fill="#FFFFFF" d="M12.265,21.44c0.225,0,0.408-0.182,0.408-0.408c0-1.966-1.094-2.863-1.329-3.034
			c-0.079-0.071-0.182-0.142-0.319-0.217c-0.104-0.058-0.217-0.103-0.331-0.131l-0.286,0.288l-0.276-0.291
			c-0.002,0-0.003,0.002-0.003,0.002c-0.178,0.041-0.351,0.125-0.498,0.242c-0.012,0.006-0.025,0.012-0.037,0.018
			c-0.056,0.036-1.374,0.911-1.374,3.067c0,0.225,0.182,0.407,0.408,0.407c0.225,0,0.409-0.182,0.409-0.407
			c0-0.491,0.081-0.891,0.197-1.218v1.423c0,0.119,0.023,0.231,0.065,0.334c-0.003,0.023-0.007,0.048-0.007,0.071l0.001,3.758
			c0,0.292,0.235,0.525,0.526,0.525c0.291,0,0.526-0.233,0.526-0.525V22.19c0.022,0.001,0.042,0.001,0.063,0.001
			c0.005,0,0.008,0,0.013,0v3.152c0,0.292,0.235,0.527,0.526,0.527c0.291,0,0.526-0.235,0.526-0.527v-3.731
			c0.069-0.127,0.109-0.273,0.109-0.432v-1.561c0.156,0.356,0.275,0.82,0.275,1.412C11.856,21.258,12.04,21.44,12.265,21.44z"/>
		<circle fill="#FFFFFF" cx="21.942" cy="16.454" r="1.165"/>
		<path fill="#FFFFFF" d="M22.892,18.038c-0.079-0.071-0.183-0.144-0.322-0.218c-0.107-0.06-0.222-0.104-0.337-0.133l-0.29,0.291
			l-0.28-0.294c-0.002,0-0.002,0-0.004,0c-0.181,0.043-0.355,0.129-0.504,0.246c-0.014,0.007-0.024,0.01-0.037,0.018
			c-0.057,0.037-1.395,0.924-1.395,3.112c0,0.23,0.186,0.415,0.414,0.415s0.413-0.185,0.413-0.415c0-0.498,0.083-0.904,0.2-1.235
			v0.85l-0.424,2.392h0.482l0.002,2.428c0,0.295,0.238,0.534,0.535,0.534c0.295,0,0.534-0.239,0.534-0.534v-2.428h0.076
			l-0.002,2.428c0,0.295,0.24,0.534,0.535,0.534s0.536-0.239,0.536-0.534v-2.428h0.53l-0.42-2.372v-1.012
			c0.157,0.364,0.277,0.833,0.277,1.435c0,0.228,0.187,0.413,0.415,0.413s0.414-0.185,0.414-0.413
			C24.24,19.122,23.132,18.211,22.892,18.038z"/>
	</g>
</g>
</svg>
