<?xml version="1.0" encoding="utf-8"?>
<!-- Generator: Adobe Illustrator 16.0.0, SVG Export Plug-In . SVG Version: 6.00 Build 0)  -->
<!DOCTYPE svg PUBLIC "-//W3C//DTD SVG 1.1//EN" "http://www.w3.org/Graphics/SVG/1.1/DTD/svg11.dtd">
<svg version="1.1" id="Layer_1" xmlns="http://www.w3.org/2000/svg" xmlns:xlink="http://www.w3.org/1999/xlink" x="0px" y="0px"
	 width="32.5px" height="50px" viewBox="0 0 39 60" enable-background="new 0 0 39 60" xml:space="preserve">
<g>
	<path fill="#7040C4" d="M19.5,60.068L19.5,60.068c0,0,19.311-29.654,19.311-39.447c0-14.346-9.793-20.553-19.311-20.69
		c-9.517,0-19.311,6.207-19.311,20.69C0.189,30.414,19.5,60.068,19.5,60.068L19.5,60.068z"/>
</g>
<circle fill="#4B2D8D" cx="19.5" cy="19.75" r="16.75"/>
<g>
	<g>
		<circle fill="#FFFFFF" cx="16.071" cy="10.618" r="2.352"/>
		<circle fill="#FFFFFF" cx="22.158" cy="10.618" r="2.352"/>
		<path fill="#FFFFFF" d="M24.218,26.208c-0.023,0.002-0.047,0.004-0.071,0.004c-0.504,0-0.912-0.411-0.912-0.913
			c0-2.849,1.787-4.034,1.862-4.083c0.019-0.012,0.034-0.02,0.052-0.028c0-0.002,0-0.002,0.002-0.002
			c-0.002-0.012-0.004-0.022-0.008-0.034c-0.391-0.332-0.641-0.828-0.641-1.381c0-0.266,0.058-0.518,0.162-0.746
			c-0.039-0.161-0.071-0.298-0.097-0.403v-1.76c0.204,0.422,0.361,0.956,0.454,1.641c0.329-0.335,0.786-0.543,1.292-0.543
			c0.167,0,0.325,0.024,0.478,0.065c-0.426-2.629-1.726-3.667-3.057-4.482c-0.046-0.028-0.096-0.05-0.146-0.069
			c-0.262-0.173-0.556-0.3-0.854-0.371c-0.002-0.002-0.004-0.002-0.006-0.002l-0.568,0.597l-0.587-0.591
			c-0.325,0.081-0.645,0.226-0.923,0.424c-0.008,0.004-0.016,0.008-0.025,0.012c-0.52,0.319-1.038,0.672-1.498,1.143
			c-0.46-0.49-0.99-0.873-1.538-1.208c-0.082-0.05-0.167-0.082-0.254-0.104c-0.214-0.119-0.444-0.21-0.679-0.268l-0.585,0.591
			l-0.569-0.597c-0.002,0-0.004,0-0.006,0c-0.3,0.073-0.593,0.2-0.855,0.373c-0.05,0.018-0.099,0.042-0.145,0.069
			c-1.395,0.855-2.668,2.032-2.898,4.621c0.25-0.131,0.529-0.204,0.829-0.204c0.365,0,0.707,0.111,0.99,0.299
			c0.043-0.456,0.127-0.843,0.246-1.174v1.373c0.341,0.327,0.555,0.786,0.555,1.293c0,0.457-0.172,0.871-0.456,1.188
			c0.012,0.03,0.02,0.062,0.032,0.091c-0.006,0.047-0.01,0.095-0.01,0.143v0.105c0.008,0.008,0.018,0.014,0.026,0.02
			c0.332,0.246,1.75,1.444,1.75,3.966c0,0.498-0.407,0.905-0.905,0.905c-0.192,0-0.369-0.06-0.514-0.161
			c-0.008,0.016-0.014,0.032-0.022,0.048v4.383c0,0.081-0.01,0.158-0.028,0.233c0.197,0.203,0.47,0.328,0.772,0.328
			c0.597-0.002,1.079-0.484,1.079-1.08v-7.506c0.042,0.002,0.085,0.004,0.127,0.004c0.01,0,0.018,0,0.026,0v7.502
			c0,0.595,0.484,1.08,1.08,1.08c0.597,0,1.079-0.484,1.079-1.08V21.23c0.014-0.028,0.028-0.053,0.04-0.079
			c0.014,0,0.027,0.004,0.042,0.004c0.004,0,0.008,0,0.012,0c0.27-0.004,0.512-0.125,0.677-0.315
			c0.058,0.054,0.123,0.097,0.194,0.133c-0.379,1.71-0.799,3.71-0.802,4.149c-0.002,0.359,0.645,0.667,1.56,0.861v3.94
			c0,0.595,0.482,1.08,1.08,1.08c0.595,0,1.079-0.484,1.079-1.08V26.2c0.05,0,0.102,0,0.153,0l-0.003,3.722
			c0,0.595,0.484,1.078,1.082,1.08c0.595,0,1.079-0.484,1.079-1.08v-1.799h-0.567L24.218,26.208z"/>
		<circle fill="#FFFFFF" cx="12.49" cy="19.724" r="1.377"/>
		<path fill="#FFFFFF" d="M14.718,25.728c0.27,0,0.49-0.218,0.49-0.49c0-2.359-1.313-3.436-1.595-3.641
			c-0.095-0.085-0.218-0.17-0.383-0.26c-0.125-0.07-0.26-0.123-0.397-0.157l-0.343,0.345l-0.332-0.349
			c-0.002,0-0.004,0.002-0.004,0.002c-0.214,0.049-0.421,0.15-0.597,0.29c-0.014,0.008-0.03,0.014-0.044,0.022
			c-0.067,0.043-1.648,1.093-1.648,3.68c0,0.27,0.218,0.488,0.49,0.488c0.27,0,0.49-0.218,0.49-0.488
			c0-0.589,0.097-1.069,0.236-1.462v1.708c0,0.143,0.028,0.278,0.078,0.401c-0.004,0.028-0.008,0.058-0.008,0.085l0.002,4.51
			c0,0.349,0.282,0.63,0.631,0.63s0.631-0.281,0.631-0.63v-3.784c0.026,0.002,0.05,0.002,0.076,0.002c0.006,0,0.01,0,0.016,0v3.782
			c0,0.349,0.282,0.632,0.631,0.632s0.631-0.283,0.631-0.632v-4.478c0.083-0.153,0.131-0.328,0.131-0.518v-1.873
			c0.187,0.427,0.33,0.984,0.33,1.694C14.228,25.51,14.448,25.728,14.718,25.728z"/>
		<circle fill="#FFFFFF" cx="26.331" cy="19.745" r="1.398"/>
		<path fill="#FFFFFF" d="M27.47,21.645c-0.095-0.085-0.22-0.173-0.387-0.262c-0.129-0.071-0.266-0.125-0.404-0.159l-0.348,0.349
			l-0.337-0.353c-0.002,0-0.002,0-0.004,0c-0.217,0.052-0.427,0.155-0.605,0.295c-0.016,0.008-0.029,0.012-0.044,0.022
			c-0.069,0.044-1.674,1.109-1.674,3.734c0,0.276,0.222,0.498,0.497,0.498c0.274,0,0.496-0.222,0.496-0.498
			c0-0.597,0.1-1.085,0.24-1.482v1.02l-0.508,2.871h0.579l0.002,2.913c0,0.354,0.286,0.641,0.642,0.641
			c0.353,0,0.641-0.287,0.641-0.641V27.68h0.091l-0.002,2.913c0,0.354,0.288,0.641,0.642,0.641c0.354,0,0.643-0.287,0.643-0.641
			V27.68h0.637l-0.504-2.847v-1.214c0.188,0.437,0.333,1,0.333,1.722c0,0.273,0.223,0.496,0.498,0.496
			c0.274,0,0.496-0.222,0.496-0.496C29.089,22.946,27.758,21.853,27.47,21.645z"/>
	</g>
</g>
</svg>
