<svg xmlns="http://www.w3.org/2000/svg" width="32.5" height="50" viewBox="0 0 32.5 50">
  <path fill="#7040C4" d="M16.25 50.057s16.092-24.71 16.092-32.873C32.342 5.23 24.182.057 16.25-.058 8.32-.058.158 5.115.158 17.184c0 8.16 16.092 32.873 16.092 32.873z"/>
  <circle fill="#4D3199" cx="16.25" cy="16.458" r="13.958"/>
  <g fill="#FFF" opacity=".8">
    <circle cx="13.393" cy="8.848" r="1.96"/>
    <circle cx="18.465" cy="8.848" r="1.96"/>
    <path d="M20.182 21.84l-.06.003c-.42 0-.76-.342-.76-.76 0-2.375 1.49-3.363 1.552-3.403.016-.01.028-.017.043-.023 0-.002 0-.002.002-.002l-.01-.028c-.33-.276-.54-.69-.54-1.15 0-.223.05-.433.13-.623-.03-.134-.06-.248-.08-.335v-1.47c.17.35.3.79.38 1.36.27-.28.65-.46 1.07-.46.14 0 .27.02.4.05-.36-2.19-1.44-3.06-2.55-3.74l-.12-.06c-.22-.15-.46-.25-.71-.31h-.01l-.48.5-.49-.49c-.27.06-.54.18-.77.35l-.02.01c-.44.27-.87.56-1.25.95-.39-.41-.83-.73-1.28-1.01-.07-.04-.14-.07-.22-.088-.18-.1-.37-.17-.57-.22l-.49.495-.475-.493c-.25.06-.49.162-.71.31-.04.01-.08.03-.12.06-1.16.71-2.223 1.69-2.414 3.85.21-.11.44-.17.69-.17.306 0 .59.09.827.25.034-.38.104-.708.203-.98v1.14c.29.272.468.655.468 1.08 0 .38-.14.726-.38.99l.03.076c-.005.04-.008.08-.008.12v.087l.02.02c.273.2 1.46 1.2 1.46 3.3 0 .413-.34.752-.76.752-.16 0-.308-.05-.428-.14l-.02.04v3.654c0 .06-.01.13-.027.19.162.17.39.27.64.27.5 0 .9-.4.9-.9v-6.25l.1.003h.02v6.25c0 .5.4.9.9.9s.9-.4.9-.9v-7.2c.01-.025.02-.046.03-.067h.048c.225-.002.427-.103.564-.26.05.044.105.08.164.11-.32 1.425-.67 3.09-.67 3.46 0 .297.538.554 1.3.715v3.284c0 .5.4.9.9.9.496 0 .9-.4.9-.9v-3.1h.127v3.11c0 .5.4.9.9.9s.9-.4.9-.9v-1.5h-.47l.28-1.6z"/>
    <circle cx="10.408" cy="16.437" r="1.147"/>
    <path d="M12.265 21.44c.225 0 .408-.182.408-.408 0-1.966-1.094-2.863-1.33-3.034-.078-.07-.18-.142-.318-.217-.104-.05-.217-.1-.33-.13l-.287.29-.276-.29h-.003c-.18.04-.36.13-.5.25-.01.01-.03.02-.04.02-.06.04-1.38.91-1.38 3.07 0 .23.18.41.4.41.22 0 .41-.18.41-.4 0-.49.08-.89.19-1.22v1.42c0 .12.02.23.06.34-.01.03-.01.05-.01.07v3.76c0 .29.23.53.52.53.29 0 .52-.23.52-.52V22.2h.072v3.15c0 .29.24.527.53.527.29 0 .527-.237.527-.53v-3.73c.07-.127.11-.273.11-.432v-1.56c.152.356.27.82.27 1.41 0 .23.18.41.41.41z"/>
    <circle cx="21.942" cy="16.454" r="1.165"/>
    <path d="M22.892 18.038c-.08-.07-.183-.144-.322-.218-.107-.06-.222-.104-.337-.133l-.29.29-.28-.293h-.004c-.19.043-.36.13-.51.246-.02.007-.03.01-.04.018-.06.037-1.4.924-1.4 3.112 0 .23.18.415.41.415s.41-.185.41-.415c0-.498.08-.904.2-1.235v.85l-.43 2.392h.48v2.428c0 .295.23.534.53.534.29 0 .53-.24.53-.54v-2.43h.07v2.42c0 .29.24.53.534.53s.535-.24.535-.54v-2.42h.53l-.42-2.37v-1.01c.16.36.28.83.28 1.43 0 .23.183.41.41.41s.413-.19.413-.42c0-2-1.11-2.91-1.35-3.08z"/>
  </g>
</svg>
