<svg xmlns="http://www.w3.org/2000/svg" width="32.5" height="50" viewBox="0 0 32.5 50">
  <path fill="#E6E2AF" d="M16.25 50.057s16.092-24.71 16.092-32.873C32.342 5.23 24.182.057 16.25-.058 8.32-.058.158 5.115.158 17.184c0 8.16 16.092 32.873 16.092 32.873z"/>
  <circle fill="#A8A376" cx="16.25" cy="16.458" r="13.958"/>
  <g fill="#FFF" opacity=".8">
    <path d="M20.438 23.995c-.184-.047-.368.066-.414.25l-.343 1.367c-.04.185.07.37.25.415.03.008.06.01.09.01.16 0 .3-.102.33-.258l.34-1.37c.05-.19-.06-.37-.25-.42zm-4.188-6.852c.044 0 .088-.01.13-.027l3.765-1.557c.174-.08.258-.28.185-.45-.07-.18-.272-.26-.446-.19l-3.634 1.51-9.58-3.97v-.12c0-.19-.153-.348-.342-.348-.188 0-.34.153-.34.342v.34c0 .14.082.263.21.316l9.92 4.11c.044.02.087.03.132.03zm4.07 3.504c-.084-.17-.29-.24-.46-.156-.647.33-1.733.7-3.27.75v-3.07c0-.19-.152-.34-.34-.34s-.343.16-.343.35v3.07c-4.25-.13-5.62-2.71-5.816-3.14v-2.32c0-.19-.15-.34-.34-.34s-.34.16-.34.34v2.4c0 .047.01.09.03.13.06.15 1.52 3.638 6.82 3.638 1.85 0 3.15-.45 3.92-.826.17-.084.24-.29.16-.46zm1.062 3.68c-.19 0-.343.153-.343.342v1.02c0 .19.15.34.34.34.19 0 .34-.16.34-.34v-1.02c0-.19-.15-.35-.34-.35z"/>
    <path d="M26.172 12.01c-.19 0-.343.154-.343.343v.113l-4.11 1.69v-.62l4.58-1.893c.12-.053.21-.178.21-.316 0-.14-.09-.263-.21-.317l-9.92-4.105c-.09-.034-.18-.034-.26 0L6.19 11.01c-.127.053-.21.178-.21.317 0 .138.083.263.21.316l9.922 4.106c.04.01.086.02.13.02s.088-.01.13-.03l3.59-1.49c.174-.07.256-.27.185-.45-.07-.18-.27-.26-.447-.19l-3.457 1.43-9.03-3.738 9.03-3.73 9.027 3.733-3.93 1.625-3.762-1.4c.02-.074.033-.147.033-.22 0-.58-.6-1.03-1.37-1.03s-1.36.45-1.36 1.026.6 1.026 1.37 1.026c.348 0 .65-.09.89-.24l3.906 1.46V22c-.393.14-.68.516-.68.96 0 .567.46 1.027 1.025 1.027s1.023-.46 1.023-1.026c0-.44-.29-.82-.685-.96v-1.95c.984-.74 1.337-1.72 1.35-1.77.015-.03.02-.07.02-.11v-2.39c0-.19-.152-.34-.342-.34s-.342.16-.342.34v2.34c-.06.147-.26.59-.68 1.03V14.9l4.577-1.884c.13-.056.215-.18.215-.32v-.34c.007-.19-.15-.34-.335-.34zm-9.922-.342c-.418 0-.684-.203-.684-.342 0-.14.266-.342.684-.342.417 0 .684.202.684.342s-.267.342-.684.342zM21.382 23.3c-.19 0-.343-.153-.343-.34 0-.19.15-.343.34-.343s.34.154.34.342c0 .18-.15.34-.34.34zm1.358.944c-.046-.183-.232-.295-.415-.25-.184.047-.296.232-.25.416l.343 1.37c.04.155.18.258.33.258.03 0 .057-.003.084-.01.185-.047.295-.23.25-.416l-.342-1.368z"/>
  </g>
</svg>
