<?xml version="1.0" encoding="utf-8"?>
<!-- Generator: Adobe Illustrator 16.0.0, SVG Export Plug-In . SVG Version: 6.00 Build 0)  -->
<!DOCTYPE svg PUBLIC "-//W3C//DTD SVG 1.1//EN" "http://www.w3.org/Graphics/SVG/1.1/DTD/svg11.dtd">
<svg version="1.1" id="Layer_1" xmlns="http://www.w3.org/2000/svg" xmlns:xlink="http://www.w3.org/1999/xlink" x="0px" y="0px"
	 width="32.5px" height="50px" viewBox="0 0 32.5 50" enable-background="new 0 0 32.5 50" xml:space="preserve">
<g>
	<path fill="#E6E2AF" d="M16.25,50.057L16.25,50.057c0,0,16.092-24.711,16.092-32.873c0-11.955-8.16-17.127-16.092-17.242
		c-7.931,0-16.092,5.173-16.092,17.242C0.158,25.345,16.25,50.057,16.25,50.057L16.25,50.057z"/>
</g>
<circle fill="#A8A376" cx="16.25" cy="16.458" r="13.958"/>
<g opacity="0.8">
	<g>
		<g>
			<path fill="#FFFFFF" d="M20.438,23.995c-0.184-0.047-0.368,0.066-0.414,0.249l-0.343,1.368c-0.046,0.185,0.065,0.369,0.25,0.415
				c0.028,0.008,0.056,0.011,0.083,0.011c0.154,0,0.293-0.103,0.332-0.259l0.342-1.369C20.733,24.227,20.621,24.041,20.438,23.995z"
				/>
			<path fill="#FFFFFF" d="M16.25,17.143c0.044,0,0.088-0.009,0.131-0.027l3.764-1.557c0.174-0.072,0.258-0.272,0.185-0.447
				c-0.071-0.175-0.272-0.257-0.446-0.186L16.25,16.43l-9.58-3.964v-0.113c0-0.189-0.153-0.343-0.342-0.343
				c-0.188,0-0.341,0.154-0.341,0.343v0.342c0,0.139,0.083,0.263,0.21,0.316l9.922,4.105C16.162,17.134,16.205,17.143,16.25,17.143z
				"/>
			<path fill="#FFFFFF" d="M20.32,20.647c-0.084-0.169-0.289-0.239-0.459-0.156c-0.648,0.321-1.734,0.694-3.27,0.746v-3.069
				c0-0.189-0.153-0.343-0.342-0.343s-0.342,0.154-0.342,0.343v3.066c-4.249-0.135-5.619-2.708-5.816-3.138v-2.323
				c0-0.189-0.153-0.342-0.342-0.342s-0.342,0.153-0.342,0.342v2.395c0,0.043,0.008,0.086,0.024,0.126
				c0.059,0.148,1.515,3.636,6.818,3.636c1.853,0,3.151-0.449,3.915-0.827C20.334,21.021,20.403,20.816,20.32,20.647z"/>
			<path fill="#FFFFFF" d="M21.382,24.327c-0.19,0-0.343,0.153-0.343,0.342v1.027c0,0.189,0.153,0.342,0.343,0.342
				c0.188,0,0.341-0.154,0.341-0.342v-1.027C21.723,24.48,21.57,24.327,21.382,24.327z"/>
			<path fill="#FFFFFF" d="M26.172,12.01c-0.19,0-0.343,0.154-0.343,0.343v0.113l-4.106,1.689v-0.618l4.579-1.894
				c0.128-0.053,0.212-0.178,0.212-0.316c0-0.139-0.084-0.263-0.211-0.317l-9.922-4.105c-0.085-0.034-0.178-0.034-0.262,0
				L6.197,11.01c-0.127,0.053-0.21,0.178-0.21,0.317c0,0.138,0.083,0.263,0.21,0.316l9.922,4.106
				c0.042,0.017,0.087,0.026,0.131,0.026s0.088-0.009,0.131-0.026l3.588-1.484c0.175-0.072,0.257-0.271,0.186-0.447
				c-0.072-0.175-0.272-0.257-0.447-0.186l-3.457,1.43l-9.027-3.735L16.25,7.59l9.027,3.736l-3.93,1.625l-3.762-1.405
				c0.02-0.072,0.032-0.145,0.032-0.221c0-0.576-0.602-1.027-1.369-1.027s-1.369,0.451-1.369,1.027c0,0.575,0.602,1.025,1.369,1.025
				c0.343,0,0.647-0.093,0.886-0.244l3.903,1.458v1.096v0v7.333c-0.396,0.142-0.683,0.518-0.683,0.963
				c0,0.566,0.461,1.026,1.025,1.026s1.025-0.461,1.025-1.026c0-0.445-0.287-0.821-0.684-0.963v-1.942
				c0.982-0.742,1.335-1.729,1.35-1.772c0.013-0.036,0.019-0.073,0.019-0.112v-2.395c0-0.189-0.153-0.341-0.343-0.341
				s-0.342,0.153-0.342,0.341v2.332c-0.059,0.145-0.264,0.592-0.684,1.033v-4.244l4.578-1.884c0.127-0.052,0.212-0.177,0.212-0.317
				V12.35C26.514,12.164,26.361,12.01,26.172,12.01z M16.25,11.668c-0.418,0-0.684-0.203-0.684-0.342
				c0-0.14,0.266-0.342,0.684-0.342c0.417,0,0.684,0.202,0.684,0.342C16.934,11.466,16.667,11.668,16.25,11.668z M21.382,23.301
				c-0.189,0-0.343-0.154-0.343-0.342c0-0.188,0.154-0.342,0.343-0.342s0.341,0.154,0.341,0.342
				C21.723,23.146,21.57,23.301,21.382,23.301z"/>
			<path fill="#FFFFFF" d="M22.74,24.244c-0.046-0.183-0.232-0.295-0.415-0.249c-0.184,0.046-0.296,0.231-0.249,0.415l0.342,1.369
				c0.039,0.156,0.179,0.259,0.331,0.259c0.028,0,0.056-0.003,0.083-0.011c0.185-0.046,0.295-0.23,0.25-0.415L22.74,24.244z"/>
		</g>
	</g>
</g>
</svg>
