<?xml version="1.0" encoding="utf-8"?>
<!-- Generator: Adobe Illustrator 16.0.0, SVG Export Plug-In . SVG Version: 6.00 Build 0)  -->
<!DOCTYPE svg PUBLIC "-//W3C//DTD SVG 1.1//EN" "http://www.w3.org/Graphics/SVG/1.1/DTD/svg11.dtd">
<svg version="1.1" id="Layer_1" xmlns="http://www.w3.org/2000/svg" xmlns:xlink="http://www.w3.org/1999/xlink" x="0px" y="0px"
	 width="32.5px" height="50px" viewBox="0 0 39 60" enable-background="new 0 0 39 60" xml:space="preserve">
<g>
	<path fill="#E6E2AF" d="M19.5,60.068L19.5,60.068c0,0,19.311-29.654,19.311-39.447c0-14.346-9.793-20.553-19.311-20.69
		c-9.517,0-19.311,6.207-19.311,20.69C0.189,30.414,19.5,60.068,19.5,60.068L19.5,60.068z"/>
</g>
<circle fill="#A8A376" cx="19.5" cy="19.75" r="16.75"/>
<g>
	<g>
		<g>
			<path fill="#FFFFFF" d="M24.525,28.794c-0.22-0.056-0.442,0.079-0.497,0.299l-0.411,1.642c-0.055,0.221,0.079,0.443,0.3,0.498
				c0.033,0.009,0.066,0.013,0.1,0.013c0.184,0,0.351-0.124,0.397-0.311l0.411-1.643C24.88,29.072,24.746,28.849,24.525,28.794z"/>
			<path fill="#FFFFFF" d="M19.5,20.571c0.053,0,0.106-0.011,0.157-0.032l4.516-1.868c0.209-0.087,0.309-0.327,0.222-0.536
				c-0.086-0.21-0.327-0.309-0.536-0.223L19.5,19.716L8.004,14.959v-0.136c0-0.227-0.184-0.411-0.41-0.411s-0.41,0.185-0.41,0.411
				v0.41c0,0.167,0.1,0.316,0.253,0.38l11.906,4.926C19.394,20.561,19.446,20.571,19.5,20.571z"/>
			<path fill="#FFFFFF" d="M24.384,24.777c-0.1-0.203-0.346-0.287-0.55-0.187c-0.779,0.385-2.082,0.833-3.924,0.895v-3.683
				c0-0.227-0.184-0.411-0.41-0.411s-0.41,0.185-0.41,0.411v3.679c-5.099-0.162-6.743-3.25-6.98-3.765v-2.788
				c0-0.227-0.184-0.41-0.41-0.41s-0.41,0.184-0.41,0.41v2.874c0,0.052,0.01,0.104,0.029,0.152c0.071,0.178,1.818,4.363,8.182,4.363
				c2.224,0,3.782-0.539,4.698-0.992C24.401,25.226,24.484,24.979,24.384,24.777z"/>
			<path fill="#FFFFFF" d="M25.658,29.192c-0.228,0-0.411,0.184-0.411,0.41v1.232c0,0.227,0.184,0.41,0.411,0.41
				c0.227,0,0.41-0.184,0.41-0.41v-1.232C26.068,29.376,25.885,29.192,25.658,29.192z"/>
			<path fill="#FFFFFF" d="M31.406,14.412c-0.228,0-0.411,0.185-0.411,0.411v0.136l-4.927,2.027v-0.742l5.494-2.273
				c0.153-0.063,0.254-0.213,0.254-0.379c0-0.167-0.101-0.316-0.253-0.38L19.657,8.285c-0.102-0.041-0.214-0.041-0.314,0
				L7.437,13.212c-0.153,0.063-0.253,0.213-0.253,0.38c0,0.166,0.1,0.315,0.253,0.379l11.906,4.927
				c0.051,0.021,0.104,0.031,0.157,0.031s0.106-0.011,0.157-0.031l4.305-1.781c0.21-0.086,0.309-0.326,0.223-0.536
				c-0.087-0.21-0.327-0.309-0.536-0.223L19.5,18.074L8.667,13.592L19.5,9.108l10.832,4.483l-4.714,1.95l-4.515-1.686
				c0.024-0.086,0.039-0.174,0.039-0.265c0-0.691-0.722-1.232-1.643-1.232s-1.643,0.541-1.643,1.232c0,0.69,0.722,1.231,1.643,1.231
				c0.411,0,0.777-0.112,1.062-0.293l4.685,1.749v1.315v0.001v8.799c-0.476,0.17-0.82,0.621-0.82,1.155
				c0,0.68,0.553,1.232,1.231,1.232s1.231-0.553,1.231-1.232c0-0.534-0.345-0.985-0.821-1.155v-2.331
				c1.179-0.89,1.602-2.074,1.62-2.127c0.015-0.043,0.022-0.088,0.022-0.134v-2.874c0-0.227-0.184-0.41-0.411-0.41
				c-0.227,0-0.41,0.184-0.41,0.41v2.798c-0.071,0.174-0.317,0.711-0.821,1.24v-5.093l5.494-2.261
				c0.153-0.063,0.254-0.213,0.254-0.38v-0.41C31.816,14.597,31.633,14.412,31.406,14.412z M19.5,14.002
				c-0.502,0-0.821-0.243-0.821-0.41c0-0.168,0.319-0.411,0.821-0.411c0.501,0,0.821,0.243,0.821,0.411
				C20.321,13.759,20.001,14.002,19.5,14.002z M25.658,27.961c-0.227,0-0.411-0.185-0.411-0.411c0-0.226,0.185-0.41,0.411-0.41
				s0.41,0.185,0.41,0.41C26.068,27.776,25.885,27.961,25.658,27.961z"/>
			<path fill="#FFFFFF" d="M27.288,29.093c-0.055-0.22-0.278-0.354-0.498-0.299c-0.22,0.055-0.354,0.278-0.299,0.498l0.411,1.643
				c0.047,0.187,0.214,0.311,0.397,0.311c0.033,0,0.066-0.004,0.1-0.013c0.221-0.055,0.354-0.277,0.299-0.498L27.288,29.093z"/>
		</g>
	</g>
</g>
</svg>
