<?xml version="1.0" encoding="utf-8"?>
<!-- Generator: Adobe Illustrator 16.0.0, SVG Export Plug-In . SVG Version: 6.00 Build 0)  -->
<!DOCTYPE svg PUBLIC "-//W3C//DTD SVG 1.1//EN" "http://www.w3.org/Graphics/SVG/1.1/DTD/svg11.dtd">
<svg version="1.1" id="Layer_1" xmlns="http://www.w3.org/2000/svg" xmlns:xlink="http://www.w3.org/1999/xlink" x="0px" y="0px"
	 width="32.5px" height="50px" viewBox="0 0 39 60" enable-background="new 0 0 39 60" xml:space="preserve">
<g>
	<path fill="#00A71A" d="M19.5,60.068L19.5,60.068c0,0,19.311-29.654,19.311-39.447c0-14.346-9.793-20.553-19.311-20.69
		c-9.517,0-19.311,6.207-19.311,20.69C0.189,30.414,19.5,60.068,19.5,60.068L19.5,60.068z"/>
</g>
<circle fill="#00720D" cx="19.5" cy="19.75" r="16.75"/>
<g>
	<g>
		<path fill="#FFFFFF" d="M24.567,8.005c-1.417,0-2.6,1.096-2.699,2.51l-0.724,10.096c-0.032,0.439,0.12,0.876,0.42,1.198
			c0.302,0.323,0.722,0.51,1.164,0.51h0.042l-0.247,7.906c-0.011,0.338,0.116,0.657,0.353,0.898c0.234,0.244,0.559,0.37,0.896,0.37
			h1.037c0.69,0,1.266-0.543,1.266-1.233V9.503C26.075,8.676,25.396,8.005,24.567,8.005z"/>
		<path fill="#FFFFFF" d="M18.604,8.021h-0.105c-0.253,0-0.446,0.188-0.446,0.442v4.449c0,0.395-0.331,0.718-0.726,0.718h-0.106
			c-0.394,0-0.728-0.323-0.728-0.718V8.463c0-0.253-0.19-0.442-0.443-0.442h-0.107c-0.253,0-0.454,0.188-0.454,0.442v4.449
			c0,0.395-0.323,0.718-0.718,0.718h-0.106c-0.394,0-0.7-0.323-0.7-0.718V8.463c0-0.253-0.219-0.442-0.472-0.442h-0.106
			c-0.252,0-0.462,0.188-0.462,0.442v6.73c0,0.828,0.675,1.482,1.502,1.482h0.2l-0.422,13.546c-0.011,0.339,0.116,0.659,0.352,0.901
			c0.235,0.242,0.559,0.372,0.898,0.372h0.997c0.337,0,0.662-0.13,0.897-0.372c0.236-0.243,0.362-0.567,0.353-0.906l-0.423-13.542
			h0.285c0.829,0,1.491-0.655,1.491-1.482v-6.73C19.055,8.21,18.857,8.021,18.604,8.021z"/>
	</g>
</g>
</svg>
