<svg xmlns="http://www.w3.org/2000/svg" width="32.5" height="50" viewBox="0 0 32.5 50">
  <path fill="#00A71A" d="M16.25 50.057s16.092-24.71 16.092-32.873C32.342 5.23 24.182.057 16.25-.058 8.32-.058.158 5.115.158 17.184c0 8.16 16.092 32.873 16.092 32.873z"/>
  <circle fill="#00720D" cx="16.25" cy="16.458" r="13.958"/>
  <path d="M20.473 6.67c-1.182 0-2.167.914-2.25 2.093l-.603 8.413c-.026.366.1.73.35 1 .252.268.603.424.97.424h.035l-.205 6.588c-.01.282.096.547.294.748.194.203.466.31.747.31h.87c.58 0 1.06-.454 1.06-1.028v-17.3c0-.688-.562-1.247-1.252-1.247zm-4.97.014h-.087c-.21 0-.372.157-.372.37v3.706c0 .33-.275.6-.605.6h-.09c-.33 0-.61-.27-.61-.6V7.053c0-.21-.16-.37-.37-.37h-.09c-.21 0-.38.158-.38.37v3.707c0 .33-.27.6-.6.6h-.09c-.33 0-.588-.27-.588-.6V7.053c0-.21-.184-.37-.395-.37h-.088c-.21 0-.387.158-.387.37v5.608c0 .69.56 1.24 1.25 1.24h.167l-.35 11.29c-.01.29.096.55.29.75.2.21.47.31.75.31h.83c.28 0 .554-.1.75-.31.2-.2.304-.47.296-.75l-.35-11.28h.235c.69 0 1.24-.545 1.24-1.234V7.06c0-.21-.164-.37-.375-.37z" fill="#FFF" opacity=".8"/>
</svg>
