<?xml version="1.0" encoding="utf-8"?>
<!-- Generator: Adobe Illustrator 16.0.0, SVG Export Plug-In . SVG Version: 6.00 Build 0)  -->
<!DOCTYPE svg PUBLIC "-//W3C//DTD SVG 1.1//EN" "http://www.w3.org/Graphics/SVG/1.1/DTD/svg11.dtd">
<svg version="1.1" id="Layer_1" xmlns="http://www.w3.org/2000/svg" xmlns:xlink="http://www.w3.org/1999/xlink" x="0px" y="0px"
	 width="32.5px" height="50px" viewBox="0 0 32.5 50" enable-background="new 0 0 32.5 50" xml:space="preserve">
<g>
	<path fill="#00A71A" d="M16.25,50.057L16.25,50.057c0,0,16.092-24.711,16.092-32.873c0-11.955-8.16-17.127-16.092-17.242
		c-7.931,0-16.092,5.173-16.092,17.242C0.158,25.345,16.25,50.057,16.25,50.057L16.25,50.057z"/>
</g>
<circle fill="#00720D" cx="16.25" cy="16.458" r="13.958"/>
<g opacity="0.8">
	<g>
		<path fill="#FFFFFF" d="M20.473,6.671c-1.182,0-2.167,0.913-2.25,2.092l-0.603,8.413c-0.026,0.366,0.101,0.73,0.351,0.999
			c0.251,0.269,0.602,0.425,0.969,0.425h0.035l-0.205,6.588c-0.01,0.282,0.096,0.547,0.294,0.748
			c0.194,0.203,0.466,0.309,0.747,0.309h0.863c0.575,0,1.055-0.453,1.055-1.027V7.919C21.729,7.23,21.163,6.671,20.473,6.671z"/>
		<path fill="#FFFFFF" d="M15.503,6.684h-0.087c-0.211,0-0.372,0.157-0.372,0.369v3.707c0,0.33-0.275,0.599-0.605,0.599h-0.088
			c-0.328,0-0.606-0.269-0.606-0.599V7.053c0-0.211-0.158-0.369-0.369-0.369h-0.089c-0.21,0-0.378,0.157-0.378,0.369v3.707
			c0,0.33-0.27,0.599-0.599,0.599h-0.088c-0.328,0-0.583-0.269-0.583-0.599V7.053c0-0.211-0.183-0.369-0.394-0.369h-0.088
			c-0.21,0-0.385,0.157-0.385,0.369v5.608c0,0.69,0.562,1.235,1.251,1.235h0.167l-0.352,11.288
			c-0.009,0.283,0.097,0.549,0.293,0.751c0.196,0.201,0.466,0.31,0.748,0.31h0.831c0.281,0,0.552-0.108,0.748-0.31
			c0.197-0.203,0.302-0.473,0.294-0.755l-0.352-11.285h0.237c0.691,0,1.242-0.546,1.242-1.235V7.052
			C15.879,6.842,15.714,6.684,15.503,6.684z"/>
	</g>
</g>
</svg>
