<svg xmlns="http://www.w3.org/2000/svg" width="32.5" height="50" viewBox="0 0 32.5 50">
  <path fill="#FF00CF" d="M16.25 50.057s16.092-24.71 16.092-32.873C32.342 5.23 24.182.057 16.25-.058 8.32-.058.158 5.115.158 17.184c0 8.16 16.092 32.873 16.092 32.873z"/>
  <circle fill="#CE00C4" cx="16.25" cy="16.458" r="13.958"/>
  <path d="M21.55 24.05c-.103-.283-.372-.473-.673-.473H10.09c-.345 0-.64.247-.702.585l-.322 1.778c-.015.082-.012.166.017.244.068.186.24.3.426.3h12.25c.09 0 .18-.024.26-.075.17-.13.24-.34.17-.53l-.65-1.83zm1.817-9.984L19.89 8.85l.668-1.81c.06-.158.023-.337-.092-.462s-.29-.174-.455-.127l-3.27.93c-.32 0-1.52.02-2.86.63-1.41.65-3.24 2.09-3.94 5.31-.97 4.45-.02 7.84.56 9.36h9.29l.83-.83c.15-.15.177-.38.06-.56-.762-1.182-2.566-4.18-3.264-6.04.256.09.545.148.85.13.437-.02.83-.18 1.187-.472l1.27.85c.397.26.883.34 1.34.22.457-.12.84-.434 1.053-.857l.29-.59c.076-.145.06-.32-.03-.453zm-4.88-2.902h-.616c-.25 0-.45-.202-.45-.45 0-.25.2-.453.45-.453h.62c.25 0 .45.21.45.46s-.2.45-.45.45z" fill="#FFF" opacity=".8"/>
</svg>
