<svg xmlns="http://www.w3.org/2000/svg" width="32.5" height="50" viewBox="0 0 32.5 50">
  <path fill="#FF1613" d="M16.25 50.057s16.092-24.71 16.092-32.873C32.342 5.23 24.182.057 16.25-.058 8.32-.058.158 5.115.158 17.184c0 8.16 16.092 32.873 16.092 32.873z"/>
  <circle fill="#AD0404" cx="16.25" cy="16.458" r="13.958"/>
  <g opacity=".8" fill="#FFF">
    <path d="M17.887 23.08c0 .157.13.286.287.286h.61c.158 0 .288-.128.288-.286 0-.158-.13-.287-.287-.287h-.61c-.16 0-.288.128-.288.287z"/>
    <path d="M22.243 13.145c0-.097.038-.187.106-.256.13-.14.21-.32.21-.51s-.08-.38-.21-.51L18.7 8.22c.23-.37.547-1.177.04-2.376-.043-.095-.13-.16-.233-.17-.104-.014-.205.032-.266.116-.44.62-1.32 1.184-2.35 1.836-1.16.74-2.49 1.58-3.53 2.75-1.22 1.367-1.81 2.922-1.81 4.75 0 3.457 1.84 4.956 2.41 5.333.15.1.32.15.5.15h.13c.18 0 .33.14.33.32s-.14.32-.32.32h-1.53c-.06 0-.13.02-.18.06l-1.61 1.343c-.2.17-.32.42-.32.69v1.55c0 .16.13.287.29.287h11.61c.16 0 .29-.13.29-.287v-1.54c0-.27-.12-.52-.323-.69l-1.62-1.34c-.05-.04-.114-.066-.18-.066h-1.53c-.18 0-.326-.145-.326-.324s.145-.32.324-.32h.27c.31 0 .598-.16.763-.42l.6-.96c.51-.81.4-1.87-.26-2.58l-3.26-3.47c.34.06.76.09 1.27.09 1.162 0 1.71.6 2.19 1.13.16.18.31.35.474.48.24.187.576.168.79-.045l1.026-1.03c.116-.11.116-.3 0-.41-.063-.07-.1-.16-.1-.26zm-1.192 9.648h-1.04c-.15 0-.28.128-.28.287 0 .157.13.286.29.286h1.55v1.263H10.52v-1.27h6.44c.156 0 .285-.13.285-.29 0-.16-.13-.29-.286-.29h-5.93l1.14-.96h7.74l1.15.95zm-3.4-1.53h-3.22c.04-.1.06-.21.06-.323s-.02-.224-.06-.324h3.22c-.04.1-.06.21-.06.324s.02.223.06.324zm4.3-8.78c-.17.177-.27.412-.27.66 0 .153.04.297.1.43l-.86.857c-.01.008-.02.005-.02 0-.12-.1-.25-.242-.4-.408-.5-.556-1.19-1.318-2.61-1.318-1.31 0-2.02-.28-2.03-.283h-.04c-.44-.11-.78-.39-.98-.77-.2-.39-.22-.87-.05-1.29.06-.14-.01-.31-.16-.37s-.31.02-.37.16c-.23.58-.2 1.22.07 1.77.26.51.7.88 1.26 1.05l3.87 4.11c.48.516.56 1.288.19 1.88l-.6.96c-.06.096-.16.15-.273.15h-5.3c-.065 0-.126-.014-.18-.05-1.996-1.335-2.15-4.055-2.15-4.857 0-3.79 2.813-5.58 5.074-7.02.867-.55 1.64-1.04 2.174-1.582.248.99-.225 1.497-.246 1.52-.12.11-.12.29 0 .405l3.82 3.82c.03.03.04.067.04.107-.01.036-.02.073-.05.1z"/>
    <path d="M18.615 9.683c-.66-.36-1.133-.102-1.48.088-.18.1-.333.19-.49.19-.16 0-.287.13-.287.29 0 .16.128.29.287.29.302 0 .55-.13.766-.25.06-.03.12-.06.17-.09v.06c0 .16.13.29.29.29.16 0 .29-.12.29-.28v-.13c.06.018.12.04.19.08.14.077.32.025.39-.113.08-.143.03-.32-.11-.393z"/>
  </g>
</svg>
