<?xml version="1.0" encoding="utf-8"?>
<!-- Generator: Adobe Illustrator 16.0.0, SVG Export Plug-In . SVG Version: 6.00 Build 0)  -->
<!DOCTYPE svg PUBLIC "-//W3C//DTD SVG 1.1//EN" "http://www.w3.org/Graphics/SVG/1.1/DTD/svg11.dtd">
<svg version="1.1" id="Layer_1" xmlns="http://www.w3.org/2000/svg" xmlns:xlink="http://www.w3.org/1999/xlink" x="0px" y="0px"
	 width="32.5px" height="50px" viewBox="0 0 32.5 50" enable-background="new 0 0 32.5 50" xml:space="preserve">
<g>
	<path fill="#FF1613" d="M16.25,50.057L16.25,50.057c0,0,16.092-24.711,16.092-32.873c0-11.955-8.16-17.127-16.092-17.242
		c-7.931,0-16.092,5.173-16.092,17.242C0.158,25.345,16.25,50.057,16.25,50.057L16.25,50.057z"/>
</g>
<circle fill="#AD0404" cx="16.25" cy="16.458" r="13.958"/>
<g opacity="0.8">
	<path fill="#FFFFFF" d="M17.887,23.08c0,0.157,0.129,0.286,0.287,0.286h0.611c0.157,0,0.287-0.128,0.287-0.286
		c0-0.158-0.129-0.287-0.287-0.287h-0.611C18.016,22.793,17.887,22.921,17.887,23.08z"/>
	<path fill="#FFFFFF" d="M22.243,13.145c0-0.097,0.038-0.187,0.106-0.256c0.135-0.137,0.211-0.317,0.211-0.508
		c0-0.192-0.076-0.374-0.211-0.508l-3.646-3.646c0.229-0.371,0.547-1.177,0.039-2.376c-0.042-0.096-0.13-0.163-0.232-0.173
		c-0.103-0.012-0.204,0.034-0.265,0.118c-0.441,0.621-1.328,1.184-2.355,1.836c-1.166,0.742-2.487,1.581-3.528,2.75
		c-1.219,1.368-1.812,2.923-1.812,4.751c0,3.457,1.842,4.956,2.407,5.333c0.146,0.099,0.319,0.151,0.499,0.151h0.133
		c0.179,0,0.325,0.146,0.325,0.324c0,0.179-0.146,0.324-0.325,0.324h-1.528c-0.067,0-0.132,0.024-0.184,0.067l-1.614,1.346
		c-0.205,0.171-0.323,0.422-0.323,0.689v1.547c0,0.159,0.128,0.287,0.287,0.287h11.615c0.158,0,0.287-0.128,0.287-0.287v-1.547
		c0-0.267-0.118-0.518-0.324-0.689l-1.613-1.346c-0.053-0.042-0.117-0.067-0.184-0.067h-1.529c-0.179,0-0.326-0.145-0.326-0.324
		s0.147-0.324,0.326-0.324h0.271c0.312,0,0.598-0.157,0.763-0.421l0.6-0.959c0.509-0.816,0.404-1.876-0.254-2.577l-3.265-3.469
		c0.339,0.052,0.765,0.091,1.274,0.091c1.164,0,1.709,0.6,2.188,1.129c0.16,0.178,0.312,0.346,0.476,0.474
		c0.237,0.186,0.575,0.167,0.787-0.046l1.029-1.03c0.112-0.111,0.112-0.294,0-0.406C22.281,13.333,22.243,13.242,22.243,13.145
		L22.243,13.145z M21.051,22.793h-1.043c-0.158,0-0.287,0.128-0.287,0.287c0,0.157,0.129,0.286,0.287,0.286h1.527
		c0.008,0,0.014,0,0.02,0l0,0v1.263H10.512v-1.263l0,0c0.007,0,0.013,0,0.019,0h6.42c0.157,0,0.286-0.128,0.286-0.286
		c0-0.158-0.128-0.287-0.286-0.287h-5.934l1.146-0.955h7.74L21.051,22.793L21.051,22.793z M17.643,21.264h-3.218
		c0.04-0.101,0.061-0.21,0.061-0.324s-0.021-0.224-0.061-0.324h3.218c-0.039,0.101-0.061,0.21-0.061,0.324
		S17.604,21.163,17.643,21.264z M21.944,12.483c-0.178,0.177-0.272,0.412-0.272,0.661c0,0.152,0.035,0.296,0.103,0.428l-0.859,0.858
		c-0.009,0.008-0.021,0.005-0.026,0c-0.126-0.099-0.258-0.242-0.406-0.408c-0.504-0.556-1.195-1.318-2.614-1.318
		c-1.315,0-2.025-0.281-2.031-0.283c0-0.001-0.002-0.001-0.005-0.001c-0.003-0.002-0.007-0.003-0.01-0.005
		c-0.005-0.001-0.011-0.003-0.017-0.004c-0.001,0-0.002-0.002-0.005-0.002c-0.439-0.114-0.787-0.388-0.979-0.771
		c-0.201-0.397-0.219-0.869-0.05-1.291c0.059-0.146-0.014-0.313-0.16-0.372c-0.146-0.059-0.313,0.013-0.372,0.16
		c-0.23,0.575-0.205,1.218,0.07,1.763c0.255,0.505,0.702,0.874,1.263,1.042l3.869,4.111c0.48,0.512,0.558,1.284,0.186,1.881
		l-0.6,0.958c-0.059,0.094-0.163,0.151-0.276,0.151h-5.296c-0.066,0-0.127-0.017-0.18-0.053c-1.997-1.334-2.151-4.054-2.151-4.856
		c0-3.79,2.813-5.58,5.074-7.017c0.867-0.551,1.639-1.042,2.174-1.583c0.246,0.99-0.227,1.498-0.248,1.521
		c-0.112,0.111-0.112,0.294,0,0.405l3.821,3.821c0.028,0.028,0.042,0.064,0.042,0.104C21.986,12.419,21.973,12.456,21.944,12.483
		L21.944,12.483z"/>
	<path fill="#FFFFFF" d="M18.615,9.683c-0.661-0.36-1.133-0.102-1.479,0.088c-0.18,0.099-0.334,0.183-0.491,0.183
		c-0.159,0-0.287,0.13-0.287,0.288c0,0.158,0.128,0.287,0.287,0.287c0.302,0,0.549-0.136,0.766-0.254
		c0.06-0.033,0.116-0.063,0.17-0.09v0.058c0,0.158,0.127,0.287,0.286,0.287c0.157,0,0.286-0.128,0.286-0.287v-0.134
		c0.059,0.018,0.121,0.043,0.188,0.081c0.139,0.076,0.314,0.024,0.389-0.114C18.807,9.933,18.756,9.759,18.615,9.683L18.615,9.683z"
		/>
</g>
</svg>
