<?xml version="1.0" encoding="utf-8"?>
<!-- Generator: Adobe Illustrator 16.0.0, SVG Export Plug-In . SVG Version: 6.00 Build 0)  -->
<!DOCTYPE svg PUBLIC "-//W3C//DTD SVG 1.1//EN" "http://www.w3.org/Graphics/SVG/1.1/DTD/svg11.dtd">
<svg version="1.1" id="Layer_1" xmlns="http://www.w3.org/2000/svg" xmlns:xlink="http://www.w3.org/1999/xlink" x="0px" y="0px"
	 width="32.5px" height="50px" viewBox="0 0 39 60" enable-background="new 0 0 39 60" xml:space="preserve">
<g>
	<path fill="#FF1613" d="M19.5,60.068L19.5,60.068c0,0,19.311-29.654,19.311-39.447c0-14.346-9.793-20.553-19.311-20.69
		c-9.517,0-19.311,6.207-19.311,20.69C0.189,30.414,19.5,60.068,19.5,60.068L19.5,60.068z"/>
</g>
<circle fill="#AD0404" cx="19.5" cy="19.75" r="16.75"/>
<g>
	<path fill="#FFFFFF" d="M21.464,27.696c0,0.189,0.154,0.343,0.345,0.343h0.733c0.189,0,0.344-0.154,0.344-0.343
		c0-0.19-0.154-0.344-0.344-0.344h-0.733C21.618,27.352,21.464,27.505,21.464,27.696z"/>
	<path fill="#FFFFFF" d="M26.692,15.774c0-0.116,0.045-0.224,0.128-0.307c0.162-0.164,0.252-0.381,0.252-0.61
		c0-0.231-0.09-0.448-0.252-0.61l-4.375-4.375c0.274-0.445,0.656-1.412,0.047-2.852c-0.05-0.115-0.156-0.195-0.279-0.208
		c-0.123-0.014-0.245,0.041-0.318,0.142c-0.53,0.745-1.594,1.42-2.826,2.203c-1.399,0.89-2.985,1.897-4.234,3.3
		c-1.463,1.642-2.174,3.508-2.174,5.701c0,4.148,2.21,5.947,2.888,6.4c0.176,0.118,0.383,0.181,0.598,0.181h0.16
		c0.215,0,0.39,0.175,0.39,0.389c0,0.215-0.175,0.389-0.39,0.389h-1.834c-0.08,0-0.158,0.029-0.22,0.08l-1.937,1.615
		c-0.246,0.206-0.388,0.507-0.388,0.827v1.857c0,0.19,0.154,0.344,0.344,0.344H26.21c0.19,0,0.345-0.154,0.345-0.344v-1.857
		c0-0.32-0.142-0.622-0.39-0.827l-1.936-1.615c-0.063-0.05-0.14-0.08-0.22-0.08h-1.835c-0.214,0-0.391-0.174-0.391-0.389
		s0.177-0.389,0.391-0.389h0.326c0.375,0,0.717-0.189,0.915-0.506l0.72-1.151c0.611-0.979,0.485-2.252-0.305-3.093l-3.918-4.163
		c0.407,0.062,0.918,0.109,1.528,0.109c1.398,0,2.051,0.72,2.627,1.355c0.192,0.213,0.375,0.415,0.571,0.568
		c0.284,0.223,0.69,0.2,0.944-0.055l1.236-1.236c0.134-0.134,0.134-0.353,0-0.487C26.737,15.999,26.692,15.89,26.692,15.774
		L26.692,15.774z M25.261,27.352H24.01c-0.19,0-0.345,0.154-0.345,0.344c0,0.189,0.154,0.343,0.345,0.343h1.833
		c0.009,0,0.015,0,0.022,0l0,0v1.515H12.614v-1.515l0,0c0.008,0,0.015,0,0.023,0h7.705c0.188,0,0.343-0.154,0.343-0.343
		c0-0.19-0.154-0.344-0.343-0.344h-7.121l1.375-1.146h9.288L25.261,27.352L25.261,27.352z M21.171,25.517H17.31
		c0.047-0.121,0.073-0.252,0.073-0.389s-0.026-0.269-0.073-0.389h3.861c-0.047,0.121-0.073,0.252-0.073,0.389
		S21.124,25.396,21.171,25.517z M26.333,14.98c-0.213,0.212-0.327,0.494-0.327,0.793c0,0.182,0.042,0.355,0.123,0.514l-1.031,1.03
		c-0.01,0.01-0.024,0.006-0.032,0c-0.151-0.119-0.309-0.291-0.487-0.49c-0.604-0.667-1.434-1.582-3.137-1.582
		c-1.579,0-2.43-0.337-2.437-0.34c-0.001-0.001-0.003-0.001-0.006-0.001c-0.004-0.003-0.008-0.004-0.012-0.006
		c-0.007-0.001-0.014-0.004-0.021-0.005c-0.001-0.001-0.003-0.003-0.006-0.003c-0.527-0.137-0.944-0.466-1.175-0.925
		c-0.241-0.477-0.263-1.042-0.06-1.549c0.071-0.176-0.016-0.376-0.192-0.446s-0.376,0.016-0.446,0.192
		c-0.276,0.69-0.246,1.461,0.084,2.115c0.306,0.606,0.842,1.048,1.516,1.251l4.642,4.933c0.577,0.614,0.67,1.541,0.223,2.257
		l-0.719,1.15c-0.071,0.113-0.196,0.182-0.332,0.182h-6.355c-0.079,0-0.153-0.021-0.216-0.064c-2.396-1.601-2.582-4.865-2.582-5.828
		c0-4.548,3.376-6.696,6.089-8.42c1.041-0.661,1.966-1.25,2.608-1.9c0.295,1.188-0.271,1.798-0.297,1.825
		c-0.135,0.134-0.135,0.353,0,0.486l4.585,4.585c0.034,0.034,0.051,0.077,0.051,0.125C26.384,14.903,26.367,14.947,26.333,14.98
		L26.333,14.98z"/>
	<path fill="#FFFFFF" d="M22.339,11.62c-0.794-0.432-1.36-0.122-1.775,0.105c-0.215,0.119-0.401,0.22-0.589,0.22
		c-0.19,0-0.344,0.156-0.344,0.345c0,0.19,0.154,0.344,0.344,0.344c0.363,0,0.66-0.163,0.92-0.305
		c0.071-0.039,0.139-0.076,0.203-0.108v0.069c0,0.19,0.153,0.344,0.344,0.344c0.189,0,0.343-0.154,0.343-0.344v-0.161
		c0.071,0.021,0.146,0.052,0.226,0.097c0.166,0.091,0.376,0.029,0.466-0.137C22.568,11.919,22.507,11.711,22.339,11.62L22.339,11.62
		z"/>
</g>
</svg>
