<?xml version="1.0" encoding="utf-8"?>
<!-- Generator: Adobe Illustrator 16.0.0, SVG Export Plug-In . SVG Version: 6.00 Build 0)  -->
<!DOCTYPE svg PUBLIC "-//W3C//DTD SVG 1.1//EN" "http://www.w3.org/Graphics/SVG/1.1/DTD/svg11.dtd">
<svg version="1.1" id="Layer_1" xmlns="http://www.w3.org/2000/svg" xmlns:xlink="http://www.w3.org/1999/xlink" x="0px" y="0px"
	 width="32.5px" height="50px" viewBox="0 0 32.5 50" enable-background="new 0 0 32.5 50" xml:space="preserve">
<g>
	<path fill="#3A26FF" d="M16.25,50.057L16.25,50.057c0,0,16.092-24.711,16.092-32.873c0-11.955-8.16-17.127-16.092-17.242
		c-7.931,0-16.092,5.173-16.092,17.242C0.158,25.345,16.25,50.057,16.25,50.057L16.25,50.057z"/>
</g>
<circle fill="#2222C6" cx="16.25" cy="16.458" r="13.958"/>
<g opacity="0.8">
	<g>
		<circle fill="#FFFFFF" cx="16.213" cy="7.056" r="1.903"/>
		<path fill="#FFFFFF" d="M16.877,9.867c-0.475-0.097-0.99-0.092-1.456,0.018c-3.165,0.371-4.192,4.033-3.902,6.827
			c0.125,1.208,2.029,1.219,1.902,0c-0.106-1.018-0.06-2.553,0.48-3.646c0,1.327,0,2.654,0,3.981c0,0.046,0.005,0.09,0.007,0.136
			c-0.001,0.021-0.006,0.039-0.006,0.062c0,3.159-0.006,6.315-0.137,9.472c-0.059,1.402,2.117,1.398,2.175,0
			c0.102-2.474,0.127-4.949,0.133-7.424c0.104,0.006,0.207,0.006,0.309,0.001c0.007,2.474,0.033,4.948,0.133,7.422
			c0.058,1.398,2.233,1.402,2.174,0c-0.131-3.157-0.134-6.313-0.134-9.472c0-0.097-0.015-0.187-0.034-0.273
			c-0.003-1.372-0.055-2.744-0.039-4.114c0.648,1.097,0.707,2.77,0.596,3.854c-0.128,1.219,1.775,1.207,1.9,0
			C21.278,13.858,20.201,10.102,16.877,9.867z"/>
	</g>
</g>
</svg>
