<?xml version="1.0" encoding="utf-8"?>
<!-- Generator: Adobe Illustrator 16.0.0, SVG Export Plug-In . SVG Version: 6.00 Build 0)  -->
<!DOCTYPE svg PUBLIC "-//W3C//DTD SVG 1.1//EN" "http://www.w3.org/Graphics/SVG/1.1/DTD/svg11.dtd">
<svg version="1.1" id="Layer_1" xmlns="http://www.w3.org/2000/svg" xmlns:xlink="http://www.w3.org/1999/xlink" x="0px" y="0px"
	 width="32.5px" height="50px" viewBox="0 0 39 60" enable-background="new 0 0 39 60" xml:space="preserve">
<g>
	<path fill="#3A26FF" d="M19.5,60.068L19.5,60.068c0,0,19.311-29.654,19.311-39.447c0-14.346-9.793-20.553-19.311-20.69
		c-9.517,0-19.311,6.207-19.311,20.69C0.189,30.414,19.5,60.068,19.5,60.068L19.5,60.068z"/>
</g>
<circle fill="#0602B5" cx="19.5" cy="19.75" r="16.75"/>
<g>
	<g>
		<circle fill="#FFFFFF" cx="19.456" cy="8.467" r="2.284"/>
		<path fill="#FFFFFF" d="M20.252,11.84c-0.569-0.116-1.188-0.111-1.747,0.021c-3.798,0.445-5.031,4.84-4.683,8.192
			c0.151,1.449,2.435,1.463,2.283,0c-0.127-1.221-0.072-3.064,0.576-4.375c0,1.592,0,3.185,0,4.777c0,0.056,0.006,0.108,0.008,0.163
			c-0.001,0.025-0.007,0.047-0.007,0.074c0,3.79-0.007,7.578-0.164,11.365c-0.07,1.684,2.541,1.679,2.61,0
			c0.122-2.968,0.153-5.938,0.16-8.908c0.125,0.008,0.248,0.008,0.371,0.002c0.008,2.969,0.039,5.938,0.159,8.906
			c0.07,1.679,2.68,1.684,2.61,0c-0.157-3.787-0.161-7.575-0.161-11.365c0-0.117-0.017-0.224-0.041-0.328
			c-0.004-1.646-0.066-3.292-0.047-4.937c0.778,1.316,0.849,3.324,0.714,4.625c-0.153,1.463,2.132,1.448,2.282,0
			C25.534,16.63,24.241,12.122,20.252,11.84z"/>
	</g>
</g>
</svg>
