<svg xmlns="http://www.w3.org/2000/svg" width="32.5" height="50" viewBox="0 0 32.5 50">
  <path fill="#3A26FF" d="M16.25 50.057s16.092-24.71 16.092-32.873C32.342 5.23 24.182.057 16.25-.058 8.32-.058.158 5.115.158 17.184c0 8.16 16.092 32.873 16.092 32.873z"/>
  <circle fill="#2222C6" cx="16.25" cy="16.458" r="13.958"/>
  <g fill="#FFF" opacity=".8">
    <circle cx="16.213" cy="7.056" r="1.903"/>
    <path d="M16.877 9.867c-.475-.097-.99-.092-1.456.018-3.16.37-4.19 4.033-3.9 6.827.13 1.208 2.03 1.22 1.9 0-.1-1.018-.06-2.553.48-3.646v3.98c0 .047.01.09.01.137v.062c0 3.16-.002 6.315-.133 9.472-.06 1.402 2.117 1.398 2.175 0 .103-2.474.128-4.95.134-7.424.104.006.207.006.31 0 .006 2.475.03 4.95.13 7.423.06 1.398 2.234 1.402 2.175 0-.132-3.157-.135-6.313-.135-9.472 0-.097-.016-.187-.035-.273 0-1.37-.054-2.74-.038-4.11.65 1.1.71 2.77.598 3.86-.13 1.22 1.774 1.21 1.9 0 .3-2.85-.778-6.61-4.1-6.84z"/>
  </g>
</svg>
