<svg xmlns="http://www.w3.org/2000/svg" width="32.5" height="50" viewBox="0 0 32.5 50">
  <path fill="#17E8B4" d="M16.25 50.057s16.092-24.71 16.092-32.873C32.342 5.23 24.182.057 16.25-.058 8.32-.058.158 5.115.158 17.184c0 8.16 16.092 32.873 16.092 32.873z"/>
  <circle fill="#0BAF80" cx="16.25" cy="16.458" r="13.958"/>
  <path fill="#FFF" d="M25.337 10.712H23.97V9.297c0-.323-.235-.598-.557-.646-.056-.004-1.386-.2-2.988.09-1.786.328-3.21 1.13-4.176 2.34-.97-1.21-2.39-2.013-4.18-2.337-1.6-.29-2.933-.097-2.987-.09-.32.05-.557.325-.557.648v1.416H7.163c-.36 0-.654.292-.654.653v12.316c0 .21.1.41.272.533.172.122.394.152.593.084.05-.017 4.947-1.69 8.6-.022.172.08.37.08.542 0 3.64-1.66 8.55.008 8.6.024.07.024.142.036.215.036.134 0 .265-.04.378-.12.174-.123.276-.322.276-.533V11.364c0-.36-.292-.653-.653-.653zM7.817 22.81V12.02h.712v8.705c0 .19.08.37.223.494s.334.18.522.15c.036-.006 2.876-.396 4.95 1.03-2.555-.44-5.113.064-6.41.41zm7.78-1c-.914-.827-2.104-1.386-3.522-1.644-.683-.124-1.316-.16-1.822-.16-.15 0-.29.002-.416.007V9.897c1.255-.057 4.312.078 5.76 2.532v9.38zm1.306-9.38c1.442-2.444 4.503-2.584 5.76-2.53v10.116c-.55-.02-1.352-.01-2.238.153-1.418.253-2.608.812-3.522 1.64v-9.38zm1.367 9.968c2.074-1.423 4.914-1.033 4.95-1.028.19.028.38-.027.523-.152.146-.123.226-.304.226-.495v-8.705h.71v10.79c-1.298-.34-3.858-.846-6.413-.41z" opacity=".8"/>
</svg>
