<?xml version="1.0" encoding="utf-8"?>
<!-- Generator: Adobe Illustrator 16.0.0, SVG Export Plug-In . SVG Version: 6.00 Build 0)  -->
<!DOCTYPE svg PUBLIC "-//W3C//DTD SVG 1.1//EN" "http://www.w3.org/Graphics/SVG/1.1/DTD/svg11.dtd">
<svg version="1.1" id="Layer_1" xmlns="http://www.w3.org/2000/svg" xmlns:xlink="http://www.w3.org/1999/xlink" x="0px" y="0px"
	 width="32.5px" height="50px" viewBox="0 0 39 60" enable-background="new 0 0 39 60" xml:space="preserve">
<g>
	<path fill="#17E8B4" d="M19.5,60.068L19.5,60.068c0,0,19.311-29.654,19.311-39.447c0-14.346-9.793-20.553-19.311-20.69
		c-9.517,0-19.311,6.207-19.311,20.69C0.189,30.414,19.5,60.068,19.5,60.068L19.5,60.068z"/>
</g>
<circle fill="#0BAF80" cx="19.5" cy="19.75" r="16.75"/>
<g>
	<g>
		<path fill="#FFFFFF" d="M30.404,12.854h-1.641v-1.697c0-0.388-0.282-0.718-0.667-0.775c-0.067-0.01-1.663-0.242-3.586,0.107
			c-2.144,0.39-3.852,1.352-5.011,2.805c-1.159-1.454-2.868-2.416-5.011-2.805c-1.922-0.35-3.519-0.118-3.585-0.107
			c-0.384,0.058-0.668,0.387-0.668,0.775v1.697H8.597c-0.434,0-0.785,0.351-0.785,0.784v14.781c0,0.254,0.123,0.493,0.33,0.64
			c0.207,0.147,0.473,0.184,0.712,0.102c0.059-0.021,5.937-2.027,10.32-0.028c0.207,0.095,0.444,0.095,0.651,0
			c4.371-1.993,10.262,0.008,10.321,0.028c0.083,0.028,0.171,0.042,0.258,0.042c0.16,0,0.318-0.049,0.453-0.144
			c0.208-0.147,0.331-0.386,0.331-0.64V13.638C31.188,13.205,30.838,12.854,30.404,12.854z M9.381,27.37V14.422h0.854v10.447
			c0,0.228,0.1,0.444,0.272,0.593c0.172,0.149,0.401,0.216,0.627,0.183c0.043-0.005,3.451-0.473,5.941,1.234
			C14.008,26.354,10.938,26.96,9.381,27.37z M18.716,26.171c-1.097-0.991-2.525-1.662-4.227-1.971
			c-0.819-0.149-1.579-0.193-2.186-0.193c-0.181,0-0.348,0.004-0.499,0.01V11.877l0,0c1.507-0.068,5.175,0.093,6.912,3.038V26.171z
			 M20.284,14.915c1.731-2.932,5.403-3.1,6.913-3.035v12.139c-0.662-0.026-1.623-0.011-2.687,0.183
			c-1.702,0.309-3.13,0.979-4.227,1.971V14.915L20.284,14.915z M21.923,26.878c2.489-1.708,5.898-1.24,5.941-1.234
			c0.226,0.034,0.455-0.032,0.628-0.182c0.174-0.148,0.271-0.365,0.271-0.594V14.422h0.856V27.37
			C28.062,26.96,24.99,26.354,21.923,26.878z"/>
	</g>
</g>
</svg>
