<?xml version="1.0" encoding="utf-8"?>
<!-- Generator: Adobe Illustrator 16.0.0, SVG Export Plug-In . SVG Version: 6.00 Build 0)  -->
<!DOCTYPE svg PUBLIC "-//W3C//DTD SVG 1.1//EN" "http://www.w3.org/Graphics/SVG/1.1/DTD/svg11.dtd">
<svg version="1.1" id="Layer_1" xmlns="http://www.w3.org/2000/svg" xmlns:xlink="http://www.w3.org/1999/xlink" x="0px" y="0px"
	 width="32.5px" height="50px" viewBox="0 0 32.5 50" enable-background="new 0 0 32.5 50" xml:space="preserve">
<g>
	<path fill="#17E8B4" d="M16.25,50.057L16.25,50.057c0,0,16.092-24.711,16.092-32.873c0-11.955-8.16-17.127-16.092-17.242
		c-7.931,0-16.092,5.173-16.092,17.242C0.158,25.345,16.25,50.057,16.25,50.057L16.25,50.057z"/>
</g>
<circle fill="#0BAF80" cx="16.25" cy="16.458" r="13.958"/>
<g opacity="0.8">
	<g>
		<path fill="#FFFFFF" d="M25.337,10.712h-1.368V9.297c0-0.323-0.234-0.598-0.556-0.646c-0.056-0.008-1.386-0.202-2.988,0.089
			c-1.786,0.325-3.21,1.127-4.176,2.337c-0.966-1.211-2.39-2.013-4.176-2.337c-1.602-0.292-2.933-0.098-2.987-0.089
			C8.766,8.7,8.529,8.974,8.529,9.297v1.415H7.164c-0.361,0-0.654,0.292-0.654,0.653v12.317c0,0.211,0.103,0.411,0.275,0.533
			c0.172,0.123,0.394,0.153,0.593,0.085c0.049-0.018,4.947-1.689,8.6-0.023c0.172,0.079,0.37,0.079,0.542,0
			c3.642-1.661,8.551,0.007,8.6,0.023c0.07,0.023,0.143,0.035,0.216,0.035c0.134,0,0.265-0.041,0.378-0.12
			c0.173-0.123,0.275-0.322,0.275-0.533V11.365C25.99,11.004,25.698,10.712,25.337,10.712z M7.817,22.809v-10.79h0.712v8.706
			c0,0.19,0.083,0.37,0.227,0.494s0.334,0.18,0.522,0.152c0.036-0.004,2.876-0.394,4.951,1.029
			C11.673,21.962,9.115,22.467,7.817,22.809z M15.597,21.809c-0.914-0.826-2.104-1.385-3.522-1.643
			c-0.683-0.124-1.316-0.161-1.822-0.161c-0.151,0-0.29,0.003-0.416,0.008V9.897l0,0c1.255-0.057,4.312,0.078,5.76,2.532V21.809z
			 M16.903,12.429c1.442-2.443,4.503-2.583,5.761-2.529v10.116c-0.552-0.021-1.353-0.009-2.239,0.153
			c-1.418,0.257-2.608,0.816-3.522,1.643L16.903,12.429L16.903,12.429z M18.27,22.398c2.074-1.423,4.914-1.033,4.951-1.028
			c0.188,0.028,0.379-0.027,0.522-0.152c0.146-0.123,0.226-0.304,0.226-0.495v-8.705h0.714v10.79
			C23.385,22.467,20.825,21.962,18.27,22.398z"/>
	</g>
</g>
</svg>
