<?xml version="1.0" encoding="utf-8"?>
<!-- Generator: Adobe Illustrator 19.0.0, SVG Export Plug-In . SVG Version: 6.00 Build 0)  -->
<svg version="1.1" id="Layer_1" xmlns="http://www.w3.org/2000/svg" xmlns:xlink="http://www.w3.org/1999/xlink" x="0px" y="0px" width="20px" height="40px"
	 viewBox="45.9 375.1 28.1 43.5" style="enable-background:new 45.9 375.1 28.1 43.5;" xml:space="preserve">
<style type="text/css">
	.st0{fill:#00AEEF;}
</style>
<g>
	<path class="st0" d="M59.9,418.6C59.9,418.6,59.9,418.6,59.9,418.6c0,0,14-21.5,14-28.6c0-10.4-7.1-14.9-14-15c-6.9,0-14,4.5-14,15
		C45.9,397.1,59.9,418.6,59.9,418.6L59.9,418.6z M55,389.4c0-2.7,2.2-4.9,4.9-4.9s4.9,2.2,4.9,4.9c0,2.7-2.2,4.9-4.9,4.9
		C57.2,394.3,55,392.1,55,389.4z"/>
</g>
</svg>
