<?xml version="1.0" encoding="utf-8"?>
<!-- Generator: Adobe Illustrator 16.0.0, SVG Export Plug-In . SVG Version: 6.00 Build 0)  -->
<!DOCTYPE svg PUBLIC "-//W3C//DTD SVG 1.1//EN" "http://www.w3.org/Graphics/SVG/1.1/DTD/svg11.dtd">
<svg version="1.1" id="Layer_1" xmlns="http://www.w3.org/2000/svg" xmlns:xlink="http://www.w3.org/1999/xlink" x="0px" y="0px"
	 width="32.5px" height="50px" viewBox="0 0 32.5 50" enable-background="new 0 0 32.5 50" xml:space="preserve">
<g>
	<path fill="#00AEEF" d="M16.25,50.057L16.25,50.057c0,0,16.092-24.711,16.092-32.873c0-11.955-8.16-17.127-16.092-17.242
		c-7.931,0-16.092,5.173-16.092,17.242C0.158,25.345,16.25,50.057,16.25,50.057L16.25,50.057z"/>
</g>
<circle fill="#0086AF" cx="16.25" cy="16.458" r="13.958"/>
<g opacity="0.8">
	<g>
		<path fill="#FFFFFF" d="M12.205,10.332v1.792v1.874v5.272c-0.47-0.288-1.02-0.457-1.612-0.457c-1.708,0-3.093,1.385-3.093,3.092
			C7.5,23.615,8.885,25,10.593,25c1.708,0,3.092-1.384,3.093-3.093l0,0v-8.334l7.87-2.262v5.292
			c-0.47-0.288-1.021-0.457-1.611-0.457c-1.71,0-3.095,1.385-3.095,3.091c0,1.709,1.385,3.094,3.095,3.094
			c1.608,0,2.931-1.232,3.077-2.803h0.016v-8.643V9.557V7.217L12.205,10.332z"/>
	</g>
</g>
</svg>
