<?xml version="1.0" encoding="utf-8"?>
<!-- Generator: Adobe Illustrator 16.0.0, SVG Export Plug-In . SVG Version: 6.00 Build 0)  -->
<!DOCTYPE svg PUBLIC "-//W3C//DTD SVG 1.1//EN" "http://www.w3.org/Graphics/SVG/1.1/DTD/svg11.dtd">
<svg version="1.1" id="Layer_1" xmlns="http://www.w3.org/2000/svg" xmlns:xlink="http://www.w3.org/1999/xlink" x="0px" y="0px"
	 width="32.5px" height="50px" viewBox="0 0 39 60" enable-background="new 0 0 39 60" xml:space="preserve">
<g>
	<path fill="#00AEEF" d="M19.5,60.068L19.5,60.068c0,0,19.311-29.654,19.311-39.447c0-14.346-9.793-20.553-19.311-20.69
		c-9.517,0-19.311,6.207-19.311,20.69C0.189,30.414,19.5,60.068,19.5,60.068L19.5,60.068z"/>
</g>
<circle fill="#0086AF" cx="19.5" cy="19.75" r="16.75"/>
<g>
	<g>
		<path fill="#FFFFFF" d="M14.646,12.398v2.15v2.249v6.327c-0.564-0.345-1.224-0.548-1.934-0.548C10.663,22.576,9,24.238,9,26.287
			C9,28.338,10.662,30,12.712,30c2.049,0,3.71-1.661,3.711-3.712l0,0V16.287l9.444-2.715v6.35c-0.564-0.345-1.225-0.548-1.934-0.548
			c-2.051,0-3.713,1.662-3.713,3.709c0,2.051,1.662,3.713,3.713,3.713c1.931,0,3.517-1.478,3.692-3.363h0.019V13.061v-1.593V8.661
			L14.646,12.398z"/>
	</g>
</g>
</svg>
