<svg xmlns="http://www.w3.org/2000/svg" width="32.5" height="50" viewBox="0 0 32.5 50">
  <path fill="#00AEEF" d="M16.25 50.057s16.092-24.71 16.092-32.873C32.342 5.23 24.182.057 16.25-.058 8.32-.058.158 5.115.158 17.184c0 8.16 16.092 32.873 16.092 32.873z"/>
  <circle fill="#0086AF" cx="16.25" cy="16.458" r="13.958"/>
  <path fill="#FFF" d="M12.205 10.332v8.938c-.47-.288-1.02-.457-1.612-.457-1.708 0-3.093 1.385-3.093 3.092C7.5 23.615 8.885 25 10.593 25s3.092-1.384 3.093-3.093v-8.334l7.87-2.262v5.294c-.47-.288-1.02-.457-1.61-.457-1.71 0-3.096 1.385-3.096 3.09 0 1.71 1.385 3.095 3.095 3.095 1.608 0 2.93-1.23 3.077-2.802h.016V7.217l-10.833 3.115z" opacity=".8"/>
</svg>
