<?xml version="1.0" encoding="utf-8"?>
<!-- Generator: Adobe Illustrator 19.0.0, SVG Export Plug-In . SVG Version: 6.00 Build 0)  -->
<svg version="1.2" baseProfile="tiny" id="Layer_1" xmlns="http://www.w3.org/2000/svg" xmlns:xlink="http://www.w3.org/1999/xlink"
	 x="0px" y="0px" width="30px" height="60px" viewBox="-123 117 365 560" xml:space="preserve">
<g>
	<path fill="#00AEEF" d="M59.9,668.7c0,0.1,0.2,0.3,0.2,0.3s175.2-269,175.2-357.4c0-130.1-88.8-186.7-175.4-186.9
		c-86.6,0.2-175.4,56.8-175.4,186.9C-115.5,400,59.8,669,59.8,669L59.9,668.7z"/>
	<path fill="#FFFFFF" d="M59.9,179v113.1c-6.3-3.6-13.6-5.9-21.4-5.9c-23.7,0-42.9,19.2-42.9,42.9S14.8,372,38.5,372
		s42.9-19.2,42.9-42.9V221.9h42.9V179H59.9z"/>
</g>
</svg>
