<?xml version="1.0" encoding="utf-8"?>
<!-- Generator: Adobe Illustrator 16.0.0, SVG Export Plug-In . SVG Version: 6.00 Build 0)  -->
<!DOCTYPE svg PUBLIC "-//W3C//DTD SVG 1.1//EN" "http://www.w3.org/Graphics/SVG/1.1/DTD/svg11.dtd">
<svg version="1.1" id="Layer_1" xmlns="http://www.w3.org/2000/svg" xmlns:xlink="http://www.w3.org/1999/xlink" x="0px" y="0px"
	 width="32.5px" height="50px" viewBox="0 0 32.5 50" enable-background="new 0 0 32.5 50" xml:space="preserve">
<g>
	<path fill="#FFA802" d="M16.25,50.057L16.25,50.057c0,0,16.092-24.711,16.092-32.873c0-11.955-8.16-17.127-16.092-17.242
		c-7.931,0-16.092,5.173-16.092,17.242C0.158,25.345,16.25,50.057,16.25,50.057L16.25,50.057z"/>
</g>
<circle fill="#CC7E00" cx="16.25" cy="16.458" r="13.958"/>
<g opacity="0.8">
	<path fill="#FFFFFF" d="M25.891,13.548c-0.037-0.138-0.127-0.255-0.253-0.323c-0.125-0.067-0.273-0.078-0.409-0.031
		c-1.178,0.414-2.996,0.68-5.042,0.68c-0.497,0-0.977-0.018-1.44-0.049c-0.241,1.085-0.623,2.083-1.115,2.96
		c0.023-0.001,0.047-0.004,0.072-0.004c0.635,0,1.15-0.053,1.15,0.375s-0.516,1.175-1.15,1.175c-0.369,0-0.697-0.12-0.907-0.303
		c-0.635,0.788-1.377,1.41-2.194,1.822c0.921,3.101,3.074,5.277,5.584,5.277c3.35,0,6.064-3.872,6.064-8.646
		C26.252,15.449,26.123,14.463,25.891,13.548z M22.604,22.602c-0.01,0.046-0.045,0.083-0.088,0.097
		c-0.045,0.016-0.094,0.006-0.129-0.025c-0.472-0.396-1.275-0.66-2.199-0.66c-0.921,0-1.723,0.264-2.197,0.66
		c-0.036,0.031-0.086,0.039-0.129,0.025c-0.045-0.015-0.08-0.052-0.089-0.097c-0.039-0.167-0.063-0.337-0.063-0.517
		c0-1.369,1.11-2.479,2.479-2.479c1.37,0,2.48,1.111,2.48,2.479C22.668,22.264,22.644,22.435,22.604,22.602z M22.672,18.332
		c-0.637,0-1.15-0.747-1.15-1.175s0.516-0.375,1.15-0.375c0.636,0,1.151,0.347,1.151,0.775S23.308,18.332,22.672,18.332z"/>
	<path fill="#FFFFFF" d="M18.376,11.104c0-1.03-0.13-2.016-0.362-2.931c-0.033-0.138-0.126-0.255-0.252-0.322
		c-0.075-0.04-0.156-0.06-0.24-0.06c-0.056,0-0.113,0.009-0.168,0.028c-1.179,0.414-2.997,0.681-5.042,0.681S8.448,8.232,7.27,7.818
		C7.215,7.799,7.158,7.79,7.102,7.79c-0.083,0-0.166,0.02-0.24,0.06C6.736,7.917,6.644,8.034,6.609,8.172
		c-0.233,0.915-0.361,1.901-0.361,2.931c0,4.776,2.715,8.647,6.063,8.647C15.66,19.751,18.376,15.879,18.376,11.104z M8.677,12.178
		c0-0.429,0.515-0.775,1.151-0.775s1.15,0.747,1.15,1.175s-0.515,0.375-1.15,0.375C9.192,12.953,8.677,12.606,8.677,12.178z
		 M12.312,18.116c-1.369,0-2.479-1.111-2.479-2.479c0-0.179,0.024-0.351,0.063-0.517c0.011-0.046,0.044-0.083,0.089-0.098
		s0.093-0.005,0.129,0.025c0.473,0.397,1.276,0.66,2.197,0.66c0.922,0,1.725-0.263,2.198-0.66c0.036-0.031,0.085-0.04,0.129-0.025
		c0.045,0.014,0.078,0.052,0.089,0.098c0.038,0.166,0.063,0.337,0.063,0.517C14.792,17.006,13.681,18.116,12.312,18.116z
		 M13.646,12.578c0-0.428,0.515-1.175,1.15-1.175c0.636,0,1.151,0.347,1.151,0.775s-0.516,0.776-1.151,0.776
		C14.161,12.953,13.646,13.007,13.646,12.578z"/>
</g>
</svg>
