<svg xmlns="http://www.w3.org/2000/svg" width="32.5" height="50" viewBox="0 0 32.5 50">
  <path fill="#FFA802" d="M16.25 50.057s16.092-24.71 16.092-32.873C32.342 5.23 24.182.057 16.25-.058 8.32-.058.158 5.115.158 17.184c0 8.16 16.092 32.873 16.092 32.873z"/>
  <circle fill="#CC7E00" cx="16.25" cy="16.458" r="13.958"/>
  <g opacity=".8" fill="#FFF">
    <path d="M25.89 13.548c-.036-.138-.126-.255-.252-.323-.125-.067-.273-.078-.41-.03-1.177.413-2.995.68-5.04.68-.498 0-.978-.02-1.44-.05-.242 1.085-.624 2.083-1.116 2.96.023 0 .047-.004.072-.004.635 0 1.15-.05 1.15.38s-.516 1.18-1.15 1.18c-.37 0-.697-.12-.907-.3-.635.79-1.377 1.41-2.194 1.828.92 3.1 3.074 5.277 5.584 5.277 3.35 0 6.064-3.873 6.064-8.647.01-1.03-.12-2.02-.36-2.934zm-3.286 9.054c-.01.046-.045.083-.088.097-.045.01-.094 0-.13-.03-.47-.4-1.274-.66-2.198-.66-.92 0-1.723.26-2.197.66-.03.03-.08.04-.12.02-.04-.02-.08-.06-.09-.1-.04-.17-.06-.34-.06-.52 0-1.37 1.11-2.48 2.48-2.48 1.37 0 2.48 1.11 2.48 2.48 0 .18-.02.35-.06.513zm.068-4.27c-.637 0-1.15-.747-1.15-1.175s.516-.375 1.15-.375c.636 0 1.15.347 1.15.775s-.514.775-1.15.775z"/>
    <path d="M18.376 11.104c0-1.03-.13-2.016-.362-2.93-.033-.14-.126-.256-.252-.323-.075-.04-.156-.06-.24-.06-.056 0-.113.01-.168.03-1.18.42-2.997.68-5.042.68s-3.864-.26-5.042-.68c-.055-.02-.112-.03-.168-.03-.083 0-.166.02-.24.06-.126.07-.218.19-.253.33-.24.92-.37 1.9-.37 2.93 0 4.78 2.71 8.65 6.06 8.65 3.35 0 6.06-3.87 6.06-8.64zm-9.7 1.074c0-.43.516-.775 1.152-.775s1.15.747 1.15 1.175-.515.375-1.15.375c-.636 0-1.15-.347-1.15-.775zm3.636 5.938c-1.37 0-2.48-1.11-2.48-2.48 0-.178.025-.35.064-.516.01-.046.044-.083.09-.098s.092-.005.128.025c.473.397 1.276.66 2.197.66.93 0 1.73-.263 2.2-.66.04-.03.09-.04.13-.025.05.014.08.052.09.098.04.166.06.337.06.517.01 1.37-1.11 2.48-2.47 2.48zm1.334-5.538c0-.428.515-1.175 1.15-1.175.636 0 1.15.347 1.15.775s-.515.776-1.15.776c-.635 0-1.15.053-1.15-.376z"/>
  </g>
</svg>
