<?xml version="1.0" encoding="utf-8"?>
<!-- Generator: Adobe Illustrator 16.0.0, SVG Export Plug-In . SVG Version: 6.00 Build 0)  -->
<!DOCTYPE svg PUBLIC "-//W3C//DTD SVG 1.1//EN" "http://www.w3.org/Graphics/SVG/1.1/DTD/svg11.dtd">
<svg version="1.1" id="Layer_1" xmlns="http://www.w3.org/2000/svg" xmlns:xlink="http://www.w3.org/1999/xlink" x="0px" y="0px"
	 width="32.5px" height="50px" viewBox="0 0 39 60" enable-background="new 0 0 39 60" xml:space="preserve">
<g>
	<path fill="#FFA802" d="M19.5,60.068L19.5,60.068c0,0,19.311-29.654,19.311-39.447c0-14.346-9.793-20.553-19.311-20.69
		c-9.517,0-19.311,6.207-19.311,20.69C0.189,30.414,19.5,60.068,19.5,60.068L19.5,60.068z"/>
</g>
<circle fill="#CC7E00" cx="19.5" cy="19.75" r="16.75"/>
<g>
	<path fill="#FFFFFF" d="M31.068,16.258c-0.043-0.166-0.152-0.306-0.303-0.387c-0.15-0.081-0.328-0.094-0.49-0.038
		c-1.414,0.497-3.596,0.816-6.051,0.816c-0.596,0-1.172-0.022-1.729-0.059c-0.289,1.303-0.748,2.499-1.338,3.552
		c0.029-0.001,0.057-0.005,0.086-0.005c0.762,0,1.381-0.064,1.381,0.45c0,0.514-0.619,1.41-1.381,1.41
		c-0.443,0-0.836-0.144-1.088-0.363c-0.762,0.946-1.653,1.692-2.633,2.186c1.105,3.721,3.689,6.333,6.701,6.333
		c4.02,0,7.277-4.646,7.277-10.376C31.502,18.539,31.348,17.356,31.068,16.258z M27.125,27.122
		c-0.012,0.055-0.055,0.099-0.107,0.116c-0.053,0.019-0.111,0.007-0.154-0.03c-0.566-0.476-1.531-0.792-2.639-0.792
		c-1.105,0-2.068,0.316-2.637,0.792c-0.043,0.037-0.102,0.047-0.154,0.03c-0.055-0.018-0.096-0.062-0.107-0.116
		c-0.047-0.2-0.076-0.405-0.076-0.62c0-1.643,1.332-2.975,2.975-2.975c1.645,0,2.977,1.333,2.977,2.975
		C27.201,26.717,27.172,26.922,27.125,27.122z M27.207,21.998c-0.764,0-1.381-0.896-1.381-1.41c0-0.514,0.619-0.45,1.381-0.45
		s1.381,0.416,1.381,0.93C28.588,21.582,27.969,21.998,27.207,21.998z"/>
	<path fill="#FFFFFF" d="M22.051,13.324c0-1.236-0.156-2.419-0.434-3.517c-0.041-0.166-0.152-0.306-0.303-0.387
		c-0.09-0.048-0.188-0.072-0.289-0.072c-0.066,0-0.135,0.011-0.201,0.034c-1.415,0.497-3.596,0.817-6.05,0.817
		c-2.454,0-4.636-0.32-6.05-0.817C8.658,9.359,8.59,9.348,8.522,9.348c-0.099,0-0.199,0.024-0.288,0.072
		C8.083,9.501,7.973,9.641,7.931,9.807c-0.279,1.098-0.433,2.281-0.433,3.517c0,5.731,3.258,10.377,7.276,10.377
		C18.792,23.701,22.051,19.055,22.051,13.324z M10.412,14.613c0-0.514,0.618-0.93,1.381-0.93s1.38,0.896,1.38,1.41
		c0,0.514-0.618,0.451-1.38,0.451S10.412,15.127,10.412,14.613z M14.774,21.739c-1.643,0-2.975-1.333-2.975-2.975
		c0-0.215,0.029-0.421,0.076-0.62c0.013-0.055,0.053-0.1,0.107-0.117s0.112-0.006,0.155,0.03c0.567,0.476,1.531,0.792,2.637,0.792
		c1.106,0,2.07-0.316,2.638-0.792c0.043-0.037,0.102-0.048,0.155-0.03c0.054,0.017,0.094,0.062,0.107,0.117
		c0.046,0.199,0.076,0.405,0.076,0.62C17.75,20.407,16.417,21.739,14.774,21.739z M16.375,15.094c0-0.514,0.618-1.41,1.38-1.41
		c0.763,0,1.382,0.416,1.382,0.93c0,0.514-0.619,0.931-1.382,0.931C16.993,15.544,16.375,15.608,16.375,15.094z"/>
</g>
</svg>
