<?xml version="1.0" encoding="utf-8"?>
<!-- Generator: Adobe Illustrator 16.0.0, SVG Export Plug-In . SVG Version: 6.00 Build 0)  -->
<!DOCTYPE svg PUBLIC "-//W3C//DTD SVG 1.1//EN" "http://www.w3.org/Graphics/SVG/1.1/DTD/svg11.dtd">
<svg version="1.1" id="Layer_1" xmlns="http://www.w3.org/2000/svg" xmlns:xlink="http://www.w3.org/1999/xlink" x="0px" y="0px"
	 width="32.5px" height="50px" viewBox="0 0 32.5 50" enable-background="new 0 0 32.5 50" xml:space="preserve">
<g>
	<path fill="#9B9B9B" d="M16.25,50.057L16.25,50.057c0,0,16.092-24.711,16.092-32.873c0-11.955-8.16-17.127-16.092-17.242
		c-7.931,0-16.092,5.173-16.092,17.242C0.158,25.345,16.25,50.057,16.25,50.057L16.25,50.057z"/>
</g>
<circle fill="#606060" cx="16.25" cy="16.458" r="13.958"/>
<g opacity="0.8">
	<g>
		<g>
			<path fill="#FFFFFF" d="M16.247,13.474c1.339,0,2.423-1.085,2.423-2.42c0-1.338-1.086-2.421-2.423-2.421
				c-1.334,0-2.418,1.083-2.418,2.421C13.828,12.389,14.913,13.474,16.247,13.474z"/>
			<path fill="#FFFFFF" d="M9.249,11.788c0.955,0,1.729-0.771,1.729-1.725c-0.001-0.955-0.772-1.728-1.729-1.728
				c-0.952,0-1.727,0.771-1.727,1.728C7.521,11.017,8.297,11.788,9.249,11.788z"/>
			<circle fill="#FFFFFF" cx="23.248" cy="10.061" r="1.726"/>
			<polygon fill="#FFFFFF" points="26.9,15.933 26.191,12.65 24.395,12.251 24.027,11.882 23.482,12.472 23.785,15.704 
				23.25,16.301 22.725,15.715 23.025,12.472 22.481,11.882 22.111,12.251 20.314,12.65 19.9,14.572 17.855,14.121 17.337,13.605 
				16.575,14.432 16.999,18.961 16.249,19.796 15.513,18.977 15.938,14.432 15.172,13.605 14.658,14.121 12.608,14.573 
				12.192,12.65 10.396,12.251 10.027,11.882 9.483,12.472 9.786,15.704 9.251,16.301 8.726,15.715 9.027,12.472 8.481,11.882 
				8.114,12.251 6.315,12.65 5.607,15.933 5.599,15.933 6.913,18.723 11.266,18.723 11.146,19.282 11.132,19.283 12.975,23.192 
				19.524,23.192 21.367,19.283 21.246,18.723 25.586,18.723 			"/>
		</g>
	</g>
</g>
</svg>
