<svg xmlns="http://www.w3.org/2000/svg" width="32.5" height="50" viewBox="0 0 32.5 50">
  <path fill="#9B9B9B" d="M16.25 50.057s16.092-24.71 16.092-32.873C32.342 5.23 24.182.057 16.25-.058 8.32-.058.158 5.115.158 17.184c0 8.16 16.092 32.873 16.092 32.873z"/>
  <circle fill="#606060" cx="16.25" cy="16.458" r="13.958"/>
  <g fill="#FFF" opacity=".8">
    <path d="M16.247 13.474c1.34 0 2.423-1.085 2.423-2.42 0-1.338-1.086-2.42-2.423-2.42-1.334 0-2.418 1.082-2.418 2.42-.003 1.335 1.082 2.42 2.416 2.42zM9.25 11.788c.954 0 1.728-.77 1.728-1.725 0-.955-.772-1.728-1.73-1.728-.95 0-1.726.77-1.726 1.728 0 .954.775 1.725 1.727 1.725z"/>
    <circle cx="23.248" cy="10.061" r="1.726"/>
    <path d="M26.9 15.933l-.71-3.283-1.795-.4-.368-.368-.545.59.303 3.232-.535.597-.525-.584.3-3.243-.544-.59-.37.37-1.795.398-.414 1.923-2.044-.45-.518-.517-.762.827.424 4.53-.75.834-.737-.82.425-4.544-.766-.827-.514.516-2.05.453-.416-1.923-1.796-.4-.37-.368-.543.59.303 3.232-.535.597-.523-.585.3-3.243-.545-.59-.366.37-1.8.398-.707 3.283H5.6l1.313 2.79h4.353l-.12.56h-.014l1.843 3.91h6.55l1.842-3.91-.12-.56h4.34"/>
  </g>
</svg>
