<?xml version="1.0" encoding="utf-8"?>
<!-- Generator: Adobe Illustrator 16.0.0, SVG Export Plug-In . SVG Version: 6.00 Build 0)  -->
<!DOCTYPE svg PUBLIC "-//W3C//DTD SVG 1.1//EN" "http://www.w3.org/Graphics/SVG/1.1/DTD/svg11.dtd">
<svg version="1.1" id="Layer_1" xmlns="http://www.w3.org/2000/svg" xmlns:xlink="http://www.w3.org/1999/xlink" x="0px" y="0px"
	 width="32.5px" height="50px" viewBox="0 0 39 60" enable-background="new 0 0 39 60" xml:space="preserve">
<g>
	<path fill="#9B9B9B" d="M19.5,60.068L19.5,60.068c0,0,19.311-29.654,19.311-39.447c0-14.346-9.793-20.553-19.311-20.69
		c-9.517,0-19.311,6.207-19.311,20.69C0.189,30.414,19.5,60.068,19.5,60.068L19.5,60.068z"/>
</g>
<circle fill="#606060" cx="19.5" cy="19.75" r="16.75"/>
<g>
	<g>
		<g>
			<path fill="#FFFFFF" d="M19.496,16.169c1.607,0,2.908-1.302,2.908-2.904c0-1.606-1.304-2.905-2.908-2.905
				c-1.601,0-2.902,1.299-2.902,2.905C16.593,14.867,17.895,16.169,19.496,16.169z"/>
			<path fill="#FFFFFF" d="M11.099,14.145c1.146,0,2.074-0.925,2.074-2.07c-0.001-1.146-0.927-2.073-2.074-2.073
				c-1.143,0-2.072,0.926-2.072,2.073C9.026,13.22,9.956,14.145,11.099,14.145z"/>
			<circle fill="#FFFFFF" cx="27.897" cy="12.073" r="2.071"/>
			<polygon fill="#FFFFFF" points="32.28,19.12 31.43,15.18 29.273,14.702 28.833,14.258 28.179,14.966 28.542,18.845 27.9,19.561
				27.27,18.858 27.631,14.966 26.978,14.258 26.534,14.702 24.377,15.18 23.881,17.487 21.427,16.945 20.804,16.326 19.89,17.318
				20.399,22.753 19.498,23.755 18.616,22.772 19.125,17.318 18.207,16.326 17.589,16.945 15.13,17.488 14.631,15.18 12.475,14.702
				12.032,14.258 11.38,14.966 11.743,18.845 11.101,19.561 10.471,18.858 10.832,14.966 10.178,14.258 9.737,14.702 7.578,15.18
				6.729,19.12 6.719,19.12 8.295,22.468 13.519,22.468 13.375,23.138 13.358,23.14 15.57,27.831 23.429,27.831 25.64,23.14
				25.495,22.468 30.703,22.468 			"/>
		</g>
	</g>
</g>
</svg>
