<?xml version="1.0" encoding="utf-8"?>
<!-- Generator: Adobe Illustrator 16.0.0, SVG Export Plug-In . SVG Version: 6.00 Build 0)  -->
<!DOCTYPE svg PUBLIC "-//W3C//DTD SVG 1.1//EN" "http://www.w3.org/Graphics/SVG/1.1/DTD/svg11.dtd">
<svg version="1.1" id="Layer_1" xmlns="http://www.w3.org/2000/svg" xmlns:xlink="http://www.w3.org/1999/xlink" x="0px" y="0px"
	 width="32.5px" height="50px" viewBox="0 0 39 60" enable-background="new 0 0 39 60" xml:space="preserve">
<g>
	<path fill="#921721" d="M19.5,60.068L19.5,60.068c0,0,19.311-29.654,19.311-39.447c0-14.346-9.793-20.553-19.311-20.69
		c-9.517,0-19.311,6.207-19.311,20.69C0.189,30.414,19.5,60.068,19.5,60.068L19.5,60.068z"/>
</g>
<circle fill="#68111B" cx="19.5" cy="19.75" r="16.75"/>
<g>
	<g>
		<g>
			<path fill="#FFFFFF" d="M25.342,19.753c-0.816,0-1.483,0.666-1.483,1.485c0,0.818,0.667,1.484,1.483,1.484
				c0.82,0,1.486-0.666,1.486-1.484C26.828,20.419,26.162,19.753,25.342,19.753z M25.342,21.995c-0.417,0-0.757-0.339-0.757-0.756
				s0.34-0.757,0.757-0.757c0.418,0,0.758,0.339,0.758,0.757S25.76,21.995,25.342,21.995z"/>
			<path fill="#FFFFFF" d="M29.973,16.465c-0.201,0-0.364,0.163-0.364,0.364c0,1.154-0.939,2.094-2.092,2.094
				c-1.156,0-2.095-0.939-2.095-2.094c0-1.556-1.265-2.822-2.82-2.822c-1.558,0-2.822,1.266-2.822,2.822
				c0,0.201,0.163,0.364,0.364,0.364c0.201,0,0.363-0.163,0.363-0.364c0-1.154,0.939-2.094,2.095-2.094
				c1.153,0,2.093,0.939,2.093,2.094c0,1.556,1.267,2.822,2.822,2.822c1.554,0,2.82-1.266,2.82-2.822
				C30.337,16.628,30.174,16.465,29.973,16.465z"/>
			<path fill="#FFFFFF" d="M27.778,17.723c0.819,0,1.486-0.666,1.486-1.485c0-0.818-0.667-1.484-1.486-1.484
				c-0.818,0-1.484,0.666-1.484,1.484C26.294,17.057,26.96,17.723,27.778,17.723z M27.778,15.481c0.417,0,0.758,0.34,0.758,0.757
				c0,0.418-0.341,0.757-0.758,0.757c-0.416,0-0.757-0.339-0.757-0.757C27.021,15.821,27.362,15.481,27.778,15.481z"/>
			<path fill="#FFFFFF" d="M28.848,13.49c0.818,0,1.485-0.666,1.485-1.484c0-0.819-0.667-1.485-1.485-1.485
				c-0.817,0-1.484,0.666-1.484,1.485C27.363,12.824,28.03,13.49,28.848,13.49z M28.848,11.249c0.419,0,0.757,0.339,0.757,0.757
				c0,0.417-0.338,0.757-0.757,0.757c-0.417,0-0.757-0.34-0.757-0.757C28.091,11.587,28.431,11.249,28.848,11.249z"/>
			<path fill="#FFFFFF" d="M19.479,12.019c0,1.577-1.282,2.858-2.858,2.858c-0.201,0-0.364,0.164-0.364,0.365
				c0,0.201,0.163,0.363,0.364,0.363c1.978,0,3.586-1.609,3.586-3.586c0-1.576,1.282-2.859,2.858-2.859
				c1.577,0,2.857,1.283,2.857,2.859c0,0.201,0.164,0.364,0.365,0.364s0.365-0.163,0.365-0.364c0-1.978-1.61-3.587-3.588-3.587
				C21.09,8.432,19.479,10.041,19.479,12.019z"/>
			<path fill="#FFFFFF" d="M16.767,13.702c0.819,0,1.485-0.666,1.485-1.485s-0.666-1.484-1.485-1.484s-1.485,0.666-1.485,1.484
				S15.948,13.702,16.767,13.702z M16.767,11.459c0.417,0,0.757,0.34,0.757,0.758s-0.339,0.757-0.757,0.757
				s-0.757-0.339-0.757-0.757S16.35,11.459,16.767,11.459z"/>
			<path fill="#FFFFFF" d="M21.617,11.491c0,0.818,0.665,1.484,1.483,1.484c0.82,0,1.484-0.666,1.484-1.484
				c0-0.819-0.664-1.485-1.484-1.485C22.282,10.006,21.617,10.672,21.617,11.491z M23.858,11.491c0,0.417-0.34,0.757-0.758,0.757
				c-0.417,0-0.757-0.34-0.757-0.757c0-0.418,0.34-0.757,0.757-0.757C23.519,10.734,23.858,11.073,23.858,11.491z"/>
			<path fill="#FFFFFF" d="M15.466,15.318c-0.084-0.083-0.205-0.121-0.321-0.099c-0.118,0.021-0.217,0.099-0.266,0.207L8.696,29.03
				c-0.063,0.139-0.034,0.302,0.076,0.409c0.069,0.069,0.161,0.105,0.256,0.105c0.052,0,0.104-0.011,0.153-0.034l13.545-6.312
				c0.106-0.05,0.184-0.15,0.204-0.268c0.021-0.118-0.016-0.237-0.103-0.32L15.466,15.318z M13.83,19.494
				c0.134,0.437,0.03,0.933-0.311,1.278c-0.114,0.116-0.248,0.206-0.393,0.27L13.83,19.494z M12.354,23.421
				c0.243-0.244,0.564-0.379,0.91-0.379c0.338,0,0.659,0.132,0.899,0.371c0.243,0.241,0.378,0.561,0.379,0.903
				c0.002,0.342-0.129,0.664-0.371,0.907c-0.242,0.245-0.565,0.379-0.908,0.379c-0.34,0-0.66-0.131-0.901-0.371
				c-0.242-0.24-0.378-0.561-0.379-0.902C11.982,23.986,12.114,23.665,12.354,23.421z M9.88,28.381l-0.114,0.054l0.182-0.4
				C9.915,28.148,9.893,28.265,9.88,28.381z M10.76,27.971c0.056-0.098,0.124-0.19,0.206-0.272c0.307-0.31,0.737-0.429,1.141-0.355
				L10.76,27.971z M17.165,24.987c0.054-0.228,0.168-0.44,0.336-0.61c0.401-0.404,1.006-0.484,1.489-0.241L17.165,24.987z
				 M19.75,23.782c-0.791-0.708-2.011-0.68-2.766,0.083c-0.39,0.393-0.597,0.929-0.579,1.477l-3.415,1.591
				c-0.787-0.526-1.861-0.434-2.543,0.254c-0.101,0.104-0.19,0.216-0.268,0.336l1.174-2.582c0.097,0.302,0.265,0.578,0.497,0.807
				c0.377,0.375,0.88,0.581,1.413,0.581l0,0c0.539,0,1.045-0.211,1.425-0.594c0.378-0.381,0.583-0.887,0.582-1.422
				c-0.002-0.536-0.214-1.04-0.595-1.417c-0.378-0.374-0.881-0.581-1.412-0.581c-0.277,0-0.543,0.055-0.789,0.161l0.273-0.603
				c0.484-0.033,0.942-0.241,1.288-0.589c0.707-0.713,0.765-1.841,0.172-2.624l0.329-0.723l1.432,1.417
				c-0.129,0.082-0.25,0.176-0.357,0.286c-0.378,0.381-0.584,0.886-0.582,1.422c0.002,0.536,0.213,1.04,0.595,1.417
				c0.379,0.376,0.879,0.582,1.413,0.582c0.003,0,0.005,0,0.009,0c0.537-0.002,1.039-0.214,1.417-0.595
				c0.108-0.109,0.202-0.23,0.282-0.36l1.473,1.458L19.75,23.782z M16.128,20.153c0.11-0.111,0.239-0.2,0.379-0.264l1.698,1.684
				c-0.062,0.141-0.15,0.27-0.26,0.381c-0.241,0.242-0.561,0.377-0.903,0.378c-0.001,0-0.003,0-0.005,0
				c-0.34,0-0.659-0.131-0.9-0.37c-0.243-0.24-0.378-0.561-0.379-0.902C15.757,20.717,15.888,20.396,16.128,20.153z M20.922,23.236
				l-6.063-6.005l0.467-1.028l6.618,6.557L20.922,23.236z"/>
			<path fill="#FFFFFF" d="M19.257,9.571c0.819,0,1.485-0.667,1.485-1.485c0-0.819-0.666-1.485-1.485-1.485
				c-0.818,0-1.484,0.666-1.484,1.485C17.773,8.904,18.439,9.571,19.257,9.571z M19.257,7.329c0.418,0,0.757,0.34,0.757,0.757
				c0,0.417-0.339,0.757-0.757,0.757c-0.417,0-0.757-0.339-0.757-0.757C18.5,7.669,18.84,7.329,19.257,7.329z"/>
			<path fill="#FFFFFF" d="M22.421,16.473c-0.818,0-1.484,0.667-1.484,1.485s0.666,1.485,1.484,1.485
				c0.819,0,1.484-0.666,1.484-1.485C23.905,17.139,23.24,16.473,22.421,16.473z M22.421,18.715c-0.416,0-0.757-0.34-0.757-0.757
				c0-0.417,0.341-0.757,0.757-0.757c0.417,0,0.757,0.34,0.757,0.757C23.178,18.375,22.838,18.715,22.421,18.715z"/>
		</g>
	</g>
</g>
</svg>
