<?xml version="1.0" encoding="utf-8"?>
<!-- Generator: Adobe Illustrator 16.0.0, SVG Export Plug-In . SVG Version: 6.00 Build 0)  -->
<!DOCTYPE svg PUBLIC "-//W3C//DTD SVG 1.1//EN" "http://www.w3.org/Graphics/SVG/1.1/DTD/svg11.dtd">
<svg version="1.1" id="Layer_1" xmlns="http://www.w3.org/2000/svg" xmlns:xlink="http://www.w3.org/1999/xlink" x="0px" y="0px"
	 width="32.5px" height="50px" viewBox="0 0 32.5 50" enable-background="new 0 0 32.5 50" xml:space="preserve">
<g>
	<path fill="#921721" d="M16.25,50.057L16.25,50.057c0,0,16.092-24.712,16.092-32.873c0-11.955-8.16-17.127-16.092-17.242
		c-7.931,0-16.092,5.173-16.092,17.242C0.158,25.345,16.25,50.057,16.25,50.057L16.25,50.057z"/>
</g>
<circle fill="#68111B" cx="16.25" cy="16.458" r="13.958"/>
<g>
	<path fill="#FFFFFF" d="M12.456,18.346c0.737,2.451,0.917,5.039,0.803,7.585c-0.015,0.311,0.409,0.114,0.418-0.112
		c0.117-2.579-0.059-5.209-0.806-7.691C12.789,17.855,12.393,18.135,12.456,18.346z M19.166,20.557
		c0.183,0.651,0.054,1.321,0.092,1.987c0.052,0.889,0.596,1.571,1.262,2.115c0.041-0.129,0.084-0.258,0.126-0.387
		c-0.608,0.264-1.586,0.701-1.533,1.516c0.046,0.702,0.58,1.203,0.454,1.951c-0.052,0.302,0.381,0.104,0.418-0.112
		c0.096-0.558-0.087-1.036-0.31-1.538c-0.09-0.203-0.187-0.428-0.119-0.65c0.122-0.399,0.826-0.632,1.158-0.777
		c0.119-0.051,0.259-0.28,0.127-0.386c-0.683-0.561-1.149-1.205-1.177-2.108c-0.018-0.619,0.087-1.221-0.084-1.828
		C19.504,20.064,19.107,20.344,19.166,20.557z M19.318,8.282c-2.671,0-4.839,2.754-4.839,6.152s3.609,6.399,4.839,6.399
		c1.231,0,4.841-3.001,4.841-6.399S21.993,8.282,19.318,8.282z M20.595,10.149l0.893-0.402c2.732,2.881,0.681,5.091,0.681,5.091
		C23.107,12.159,20.595,10.149,20.595,10.149z M13.172,18.237h-0.654c0,0-0.111,0.616-0.401,0.803
		c-0.29,0.188,0.829-0.438,1.286-0.017C13.323,18.953,13.042,18.67,13.172,18.237z M13.402,19.023
		c0.013,0.012,0.021,0.017,0.021,0.017C13.416,19.034,13.408,19.029,13.402,19.023z M19.922,20.413h-0.654
		c0,0-0.111,0.617-0.4,0.805c-0.29,0.188,0.828-0.438,1.284-0.017C20.072,21.129,19.792,20.847,19.922,20.413z M20.151,21.2
		c0.014,0.011,0.021,0.017,0.021,0.017C20.166,21.21,20.159,21.206,20.151,21.2z M16.648,8.656
		c-0.875-1.591-2.325-2.633-3.969-2.633c-2.673,0-4.84,2.754-4.84,6.152c0,3.397,3.61,6.398,4.84,6.398
		c0.48,0,1.323-0.458,2.171-1.218c-0.571-0.941-0.967-2.02-0.967-3.141C13.884,11.762,15.015,9.644,16.648,8.656z M10.728,9.191
		c-0.045,0.047-0.089,0.094-0.133,0.143c-0.086,0.097-0.171,0.199-0.253,0.302c-0.165,0.207-0.315,0.424-0.453,0.651
		c-0.275,0.452-0.492,0.941-0.611,1.458c-0.118,0.515-0.128,1.059-0.001,1.587c0.125,0.528,0.387,1.032,0.732,1.476
		c-0.409-0.387-0.755-0.856-0.974-1.397c-0.222-0.541-0.305-1.146-0.26-1.739c0.042-0.595,0.203-1.179,0.432-1.728
		C9.322,9.668,9.454,9.4,9.601,9.142c0.075-0.13,0.152-0.258,0.234-0.384c0.042-0.064,0.083-0.125,0.128-0.189
		c0.046-0.063,0.087-0.122,0.144-0.192l0.75,0.688C10.819,9.097,10.77,9.146,10.728,9.191z"/>
</g>
</svg>
