<svg xmlns="http://www.w3.org/2000/svg" width="32.5" height="50" viewBox="0 0 32.5 50">
  <path fill="#921721" d="M16.25 50.057s16.092-24.71 16.092-32.873C32.342 5.23 24.182.057 16.25-.058 8.32-.058.158 5.115.158 17.184c0 8.16 16.092 32.873 16.092 32.873z"/>
  <circle fill="#68111B" cx="16.25" cy="16.458" r="13.958"/>
  <path fill="#FFF" d="M12.456 18.346c.737 2.45.917 5.04.803 7.585-.02.32.4.12.41-.11.11-2.58-.06-5.21-.81-7.69-.08-.27-.48.01-.42.22zm6.71 2.21c.184.652.055 1.322.092 1.988.053.89.596 1.57 1.262 2.115.04-.13.084-.26.127-.39-.608.26-1.586.7-1.533 1.51.046.7.58 1.2.453 1.95-.05.3.382.1.418-.11.097-.56-.086-1.04-.31-1.54-.09-.2-.187-.43-.118-.65.12-.4.825-.63 1.157-.78.12-.05.26-.28.127-.39-.68-.56-1.14-1.21-1.17-2.11-.02-.62.09-1.22-.08-1.83-.07-.28-.47 0-.41.21zm.152-12.274c-2.67 0-4.84 2.754-4.84 6.152s3.61 6.4 4.84 6.4 4.84-3.002 4.84-6.4-2.165-6.152-4.84-6.152zm1.278 1.867l.893-.41c2.73 2.88.68 5.09.68 5.09.93-2.68-1.58-4.69-1.58-4.69zm-7.424 8.08h-.654s-.11.61-.4.8c-.29.18.828-.44 1.285-.02-.08-.07-.36-.36-.23-.79zm.23.78l.02.01c-.006-.01-.014-.01-.02-.02zm6.52 1.39h-.654s-.11.61-.4.8c-.29.19.828-.44 1.285-.02-.08-.07-.36-.36-.23-.79zm.228.78l.02.01c-.004-.01-.01-.01-.02-.02zM16.648 8.65c-.875-1.59-2.325-2.632-3.97-2.632-2.672 0-4.84 2.754-4.84 6.152 0 3.397 3.61 6.398 4.84 6.398.48 0 1.324-.456 2.172-1.216-.57-.94-.967-2.02-.967-3.14 0-2.453 1.132-4.57 2.765-5.56zm-5.92.536c-.045.05-.09.095-.133.144-.086.098-.17.2-.253.303-.165.207-.315.424-.453.65-.28.453-.5.942-.62 1.46-.12.514-.13 1.058 0 1.586.12.52.38 1.03.73 1.47-.41-.39-.76-.86-.98-1.4-.22-.54-.31-1.15-.26-1.74.04-.6.2-1.18.43-1.73.11-.28.24-.55.39-.8.07-.13.15-.26.23-.39l.13-.19c.04-.07.08-.12.14-.19l.75.68c-.04.03-.09.08-.13.122z" opacity=".8"/>
</svg>
