<?xml version="1.0" encoding="utf-8"?>
<!-- Generator: Adobe Illustrator 16.0.0, SVG Export Plug-In . SVG Version: 6.00 Build 0)  -->
<!DOCTYPE svg PUBLIC "-//W3C//DTD SVG 1.1//EN" "http://www.w3.org/Graphics/SVG/1.1/DTD/svg11.dtd">
<svg version="1.1" id="Layer_1" xmlns="http://www.w3.org/2000/svg" xmlns:xlink="http://www.w3.org/1999/xlink" x="0px" y="0px"
	 width="32.5px" height="50px" viewBox="0 0 32.5 50" enable-background="new 0 0 32.5 50" xml:space="preserve">
<g>
	<path fill="#FFE900" d="M16.25,50.057L16.25,50.057c0,0,16.092-24.711,16.092-32.873c0-11.955-8.16-17.127-16.092-17.242
		c-7.931,0-16.092,5.173-16.092,17.242C0.158,25.345,16.25,50.057,16.25,50.057L16.25,50.057z"/>
</g>
<circle fill="#C1AA06" cx="16.25" cy="16.458" r="13.958"/>
<g opacity="0.8">
	<g>
		<path fill="#FFFFFF" d="M7.228,20.616c-0.542,0.104-0.896,0.626-0.792,1.168c0.091,0.478,0.51,0.809,0.979,0.809
			c0.062,0,0.126-0.006,0.189-0.019l4.106-0.789c0.235-0.045,0.444-0.172,0.594-0.359l1.762-2.224l-0.589-0.3
			c-0.435-0.221-0.739-0.618-0.843-1.102l-1.663,2.098L7.228,20.616z"/>
		<circle fill="#FFFFFF" cx="21.855" cy="9.76" r="2.186"/>
		<path fill="#FFFFFF" d="M17.084,9.212c-0.23-0.237-0.443-0.33-0.678-0.33c-0.085,0-0.169,0.013-0.26,0.034l-3.752,0.89
			c-0.519,0.122-0.838,0.643-0.716,1.159c0.105,0.444,0.5,0.743,0.938,0.743c0.074,0,0.149-0.008,0.224-0.027l3.196-0.757
			c0.208,0.23,1.246,1.357,1.437,1.556l0,0c-1.322,1.415-2.644,2.827-3.965,4.242c-0.02,0.023-0.04,0.046-0.058,0.069
			c-0.386,0.491-0.268,1.263,0.312,1.556l0.703,0.359l3.35,1.708l-2.104,3.409c-0.288,0.468-0.143,1.083,0.326,1.373
			c0.164,0.101,0.345,0.149,0.522,0.149l0,0c0.334,0,0.663-0.168,0.851-0.473l2.673-4.329c0.146-0.239,0.186-0.527,0.109-0.794
			c-0.077-0.27-0.262-0.494-0.512-0.62l-2.744-1.397l2.885-3.086l2.178,1.846c0.18,0.154,0.4,0.229,0.623,0.229
			c0.234,0,0.473-0.087,0.656-0.258l2.5-2.329c0.389-0.363,0.412-0.973,0.049-1.363c-0.19-0.203-0.447-0.307-0.705-0.307
			c-0.232,0-0.469,0.085-0.655,0.257l-1.87,1.74C22.591,14.462,17.902,10.053,17.084,9.212z"/>
	</g>
</g>
</svg>
