<?xml version="1.0" encoding="utf-8"?>
<!-- Generator: Adobe Illustrator 16.0.0, SVG Export Plug-In . SVG Version: 6.00 Build 0)  -->
<!DOCTYPE svg PUBLIC "-//W3C//DTD SVG 1.1//EN" "http://www.w3.org/Graphics/SVG/1.1/DTD/svg11.dtd">
<svg version="1.1" id="Layer_1" xmlns="http://www.w3.org/2000/svg" xmlns:xlink="http://www.w3.org/1999/xlink" x="0px" y="0px"
	 width="32.5px" height="50px" viewBox="0 0 39 60" enable-background="new 0 0 39 60" xml:space="preserve">
<g>
	<path fill="#D5FF09" d="M19.5,60.068L19.5,60.068c0,0,19.311-29.654,19.311-39.447c0-14.346-9.793-20.553-19.311-20.69
		c-9.517,0-19.311,6.207-19.311,20.69C0.189,30.414,19.5,60.068,19.5,60.068L19.5,60.068z"/>
</g>
<circle fill="#ADC11A" cx="19.5" cy="19.75" r="16.75"/>
<g>
	<g>
		<path fill="#FFFFFF" d="M8.673,24.739c-0.65,0.125-1.076,0.751-0.951,1.402c0.109,0.573,0.612,0.97,1.174,0.97
			c0.075,0,0.152-0.007,0.227-0.022l4.928-0.946c0.282-0.055,0.533-0.207,0.712-0.431l2.115-2.668l-0.707-0.36
			c-0.522-0.265-0.886-0.742-1.011-1.322l-1.996,2.517L8.673,24.739z"/>
		<circle fill="#FFFFFF" cx="26.226" cy="11.712" r="2.623"/>
		<path fill="#FFFFFF" d="M20.501,11.055c-0.276-0.284-0.532-0.396-0.814-0.396c-0.102,0-0.203,0.015-0.312,0.04l-4.503,1.068
			c-0.622,0.146-1.005,0.771-0.859,1.391c0.127,0.533,0.6,0.891,1.125,0.891c0.089,0,0.179-0.01,0.269-0.032l3.835-0.909
			c0.249,0.276,1.496,1.628,1.724,1.867l0,0c-1.586,1.698-3.172,3.392-4.758,5.09c-0.024,0.028-0.047,0.055-0.069,0.083
			c-0.463,0.589-0.321,1.516,0.375,1.867l0.844,0.431l4.018,2.05l-2.524,4.09c-0.346,0.562-0.172,1.299,0.391,1.648
			c0.196,0.121,0.414,0.179,0.627,0.179l0,0c0.401,0,0.795-0.202,1.021-0.568l3.207-5.194c0.177-0.287,0.223-0.632,0.131-0.953
			c-0.092-0.324-0.312-0.592-0.614-0.744l-3.293-1.676l3.463-3.704l2.613,2.215c0.216,0.185,0.481,0.274,0.747,0.274
			c0.283,0,0.567-0.104,0.788-0.31l2.999-2.795c0.468-0.435,0.496-1.167,0.06-1.635c-0.229-0.244-0.537-0.368-0.846-0.368
			c-0.281,0-0.564,0.102-0.787,0.309l-2.244,2.088C27.109,17.354,21.483,12.063,20.501,11.055z"/>
	</g>
</g>
</svg>
