<svg xmlns="http://www.w3.org/2000/svg" width="32.5" height="50" viewBox="0 0 32.5 50">
  <path fill="#FFE900" d="M16.25 50.057s16.092-24.71 16.092-32.873C32.342 5.23 24.182.057 16.25-.058 8.32-.058.158 5.115.158 17.184c0 8.16 16.092 32.873 16.092 32.873z"/>
  <circle fill="#C1AA06" cx="16.25" cy="16.458" r="13.958"/>
  <g fill="#FFF" opacity=".8">
    <path d="M7.228 20.616c-.542.104-.896.626-.792 1.168.09.478.51.81.98.81.06 0 .125-.007.188-.02l4.106-.79c.235-.044.444-.17.594-.358l1.762-2.224-.59-.3c-.434-.22-.738-.618-.842-1.102l-1.663 2.098-3.74.718z"/>
    <circle cx="21.855" cy="9.76" r="2.186"/>
    <path d="M17.084 9.212c-.23-.237-.443-.33-.678-.33-.085 0-.17.013-.26.034l-3.752.89c-.52.122-.838.643-.716 1.16.105.443.5.742.938.742.074 0 .15-.008.224-.027l3.196-.753c.208.23 1.246 1.357 1.437 1.556l-3.965 4.243c-.02.023-.04.046-.058.07-.386.49-.268 1.262.312 1.555l.703.36 3.35 1.708-2.104 3.41c-.284.467-.14 1.082.33 1.372.164.1.345.15.52.15.335 0 .664-.17.85-.475l2.675-4.33c.146-.238.186-.526.11-.793-.078-.27-.263-.495-.513-.62l-2.743-1.398 2.884-3.086L22 16.492c.18.154.4.23.622.23.234 0 .473-.088.656-.26l2.5-2.328c.39-.363.412-.973.05-1.363-.19-.2-.448-.303-.706-.303-.232 0-.47.085-.655.257l-1.87 1.74c-.006.002-4.695-4.407-5.513-5.248z"/>
  </g>
</svg>
