<svg xmlns="http://www.w3.org/2000/svg" width="40" height="40" viewBox="0 0 25 25">
<style type="text/css">
	.st0{opacity:0.31;}
	.st1{fill:#02B4DC;}
	.st2{opacity:0.73;}
	.st3{opacity:0.65;}
	.st4{fill:#00A4BF;}
	.st5{fill:#067194;}
</style>
<g id="user-location">
	<g id="XMLID_12_" class="st0">
		<path id="XMLID_4_" class="st1" d="M12.5,0C5.6,0,0,5.5,0,12.5S5.6,25,12.5,25S25,19.4,25,12.5C25.1,5.6,19.5,0,12.5,0L12.5,0z"/>
	</g>
	<g id="XMLID_10_" class="st2">
		<path id="XMLID_3_" class="st1" d="M12.5,3.1c-5.1,0-9.4,4.2-9.4,9.4s4.2,9.4,9.4,9.4c5.1,0,9.4-4.2,9.4-9.4
			C21.9,7.4,17.7,3.1,12.5,3.1L12.5,3.1z"/>
	</g>
	<g id="XMLID_8_" class="st3">
		<path id="XMLID_2_" class="st4" d="M12.5,6.2C9,6.2,6.2,9,6.2,12.5s2.8,6.3,6.3,6.3s6.3-2.8,6.3-6.3S16.1,6.2,12.5,6.2L12.5,6.2z"
			/>
	</g>
</g>
<g id="XMLID_6_" class="st3">
	<path id="XMLID_1_" class="st5" d="M12.5,8.7c-2.1,0-3.8,1.7-3.8,3.8c0,2.1,1.7,3.8,3.8,3.8c2.1,0,3.8-1.7,3.8-3.8
		C16.4,10.4,14.6,8.7,12.5,8.7L12.5,8.7z"/>
</g>
</svg>
