<?xml version="1.0" encoding="utf-8"?>
<!-- Generator: Adobe Illustrator 18.1.1, SVG Export Plug-In . SVG Version: 6.00 Build 0)  -->
<!DOCTYPE svg PUBLIC "-//W3C//DTD SVG 1.1//EN" "http://www.w3.org/Graphics/SVG/1.1/DTD/svg11.dtd">
<svg version="1.1" xmlns="http://www.w3.org/2000/svg" xmlns:xlink="http://www.w3.org/1999/xlink" x="0px" y="0px"
	 viewBox="0 0 48.1 48" style="enable-background:new 0 0 48.1 48;" xml:space="preserve">
<g id="Icon_1" style="display:none;">
	<g style="display:inline;">
		<path style="fill:#263167;" d="M23.8,37c-7.3,0-13.3-5.9-13.3-13.3c0-7.3,5.9-13.3,13.3-13.3c7.3,0,13.3,5.9,13.3,13.3
			C37,31.1,31.1,37,23.8,37z"/>
		<path style="fill:#00B4DC;" d="M23.8,12c6.5,0,11.8,5.3,11.8,11.8s-5.3,11.8-11.8,11.8S12,30.2,12,23.8S17.3,12,23.8,12 M23.8,9
			C15.6,9,9,15.6,9,23.8s6.6,14.8,14.8,14.8s14.8-6.6,14.8-14.8S31.9,9,23.8,9L23.8,9z"/>
	</g>

		<text transform="matrix(1 0 0 1 13.791 29.2973)" style="display:inline;fill:#00B3DC; font-family:'MyriadPro-Regular'; font-size:18;">42</text>
</g>
<g id="Icon_2" style="display:none;">
	<g style="display:inline;">
		<circle style="fill:#263167;" cx="23.8" cy="23.8" r="11.8"/>
	</g>
	<path style="display:inline;fill:#00B3DC;" d="M23.8,8.9c-8.1,0-14.7,6.6-14.7,14.8s6.6,14.8,14.7,14.8s14.7-6.6,14.7-14.8
		S31.9,8.9,23.8,8.9z M23.8,36.6c-7,0-12.6-5.7-12.6-12.8c0-7.1,5.6-12.8,12.6-12.8s12.6,5.7,12.6,12.8
		C36.3,30.8,30.7,36.6,23.8,36.6z"/>

		<text transform="matrix(1 0 0 1 13.791 29.2976)" style="display:inline;fill:#00B3DC; font-family:'MyriadPro-Regular'; font-size:18;">42</text>
</g>
<g id="Icon_3" style="display:none;">
	<circle style="display:inline;fill:#FFFFFF;" cx="23.9" cy="23.8" r="14.3"/>
	<g style="display:inline;">
		<circle style="fill:#263167;" cx="23.8" cy="23.8" r="11.8"/>
	</g>
	<path style="display:inline;fill:#00B3DC;" d="M23.8,8.9c-8.1,0-14.7,6.6-14.7,14.8s6.6,14.8,14.7,14.8s14.7-6.6,14.7-14.8
		S31.9,8.9,23.8,8.9z M23.8,36.6c-7,0-12.6-5.7-12.6-12.8c0-7.1,5.6-12.8,12.6-12.8s12.6,5.7,12.6,12.8
		C36.3,30.8,30.7,36.6,23.8,36.6z"/>

		<text transform="matrix(1 0 0 1 13.791 29.2976)" style="display:inline;fill:#00B3DC; font-family:'MyriadPro-Regular'; font-size:18;">42</text>
</g>
<g id="Icon_4" style="display:none;">
	<g style="display:inline;opacity:0.31;">
		<path style="fill:#00B4DC;" d="M23.9,12c6.5,0,11.8,5.3,11.8,11.8s-5.3,11.8-11.8,11.8s-11.8-5.3-11.8-11.8S17.4,12,23.9,12
			 M23.9,8C15.2,8,8.2,15.1,8.2,23.8s7.1,15.8,15.8,15.8s15.8-7.1,15.8-15.8S32.6,8,23.9,8L23.9,8z"/>
	</g>
	<g style="display:inline;">
		<path style="fill:#263167;" d="M23.8,37c-7.3,0-13.3-5.9-13.3-13.3c0-7.3,5.9-13.3,13.3-13.3c7.3,0,13.3,5.9,13.3,13.3
			C37,31.1,31.1,37,23.8,37z"/>
		<path style="fill:#00B4DC;" d="M23.8,12c6.5,0,11.8,5.3,11.8,11.8s-5.3,11.8-11.8,11.8S12,30.2,12,23.8S17.3,12,23.8,12 M23.8,9
			C15.6,9,9,15.6,9,23.8s6.6,14.8,14.8,14.8s14.8-6.6,14.8-14.8S31.9,9,23.8,9L23.8,9z"/>
	</g>

		<text transform="matrix(1 0 0 1 13.791 29.2973)" style="display:inline;fill:#00B3DC; font-family:'MyriadPro-Regular'; font-size:18;">42</text>
	<g style="display:inline;opacity:0.65;">
		<path style="fill:#00B4DC;" d="M23.8,13c5.9,0,10.8,4.8,10.8,10.8s-4.8,10.8-10.8,10.8S13,29.7,13,23.8S17.8,13,23.8,13 M23.8,12
			C17.3,12,12,17.3,12,23.8s5.3,11.8,11.8,11.8s11.8-5.3,11.8-11.8S30.2,12,23.8,12L23.8,12z"/>
	</g>
</g>
<g id="Icon_5" style="display:none;">
	<g style="display:inline;">
		<circle style="fill:#263167;" cx="23.7" cy="23.8" r="14.9"/>
	</g>
	<g style="display:inline;opacity:0.31;">
		<path style="fill:#00B4DC;" d="M23.9,8.9c8.2,0,14.9,6.7,14.9,14.9s-6.7,14.9-14.9,14.9S9,32,9,23.8S15.7,8.9,23.9,8.9 M23.9,1.3
			C11.5,1.3,1.4,11.3,1.4,23.8s10.1,22.5,22.5,22.5s22.5-10.1,22.5-22.5S36.3,1.3,23.9,1.3L23.9,1.3z"/>
	</g>
	<g style="display:inline;opacity:0.73;">
		<path style="fill:#263167;" d="M23.7,40.5c-9.3,0-16.8-7.5-16.8-16.8C6.9,14.5,14.5,7,23.7,7s16.8,7.5,16.8,16.8
			C40.5,33,33,40.5,23.7,40.5z"/>
		<path style="fill:#00B4DC;" d="M23.7,8.9c8.2,0,14.9,6.7,14.9,14.9S32,38.6,23.7,38.6S8.8,32,8.8,23.8S15.5,8.9,23.7,8.9
			 M23.7,5.1C13.4,5.1,5,13.4,5,23.8s8.4,18.7,18.7,18.7s18.7-8.4,18.7-18.7S34,5.1,23.7,5.1L23.7,5.1z"/>
	</g>
	<g style="display:inline;opacity:0.65;">
		<path style="fill:#00B4DC;" d="M23.7,11.4c6.8,0,12.4,5.5,12.4,12.4s-5.5,12.4-12.4,12.4s-12.4-5.5-12.4-12.4S16.9,11.4,23.7,11.4
			 M23.7,8.9c-8.2,0-14.9,6.7-14.9,14.9s6.7,14.9,14.9,14.9S38.6,32,38.6,23.8S32,8.9,23.7,8.9L23.7,8.9z"/>
	</g>

		<text transform="matrix(1 0 0 1 20.229 28.1035)" style="display:inline;fill:#FFFFFF; font-family:'MyriadPro-Regular'; font-size:15.2066;">8</text>
</g>
<g id="Icon_5_Kopie">
	<g>
		<circle style="fill:#263167;" cx="23.7" cy="23.8" r="14.9"/>
	</g>
	<g style="opacity:0.31;">
		<path style="fill:#00B4DC;" d="M23.9,8.9c8.2,0,14.9,6.7,14.9,14.9s-6.7,14.9-14.9,14.9S9,32,9,23.8S15.7,8.9,23.9,8.9 M23.9,1.3
			C11.5,1.3,1.4,11.3,1.4,23.8s10.1,22.5,22.5,22.5s22.5-10.1,22.5-22.5S36.3,1.3,23.9,1.3L23.9,1.3z"/>
	</g>
	<g style="opacity:0.73;">
		<path style="fill:#263167;" d="M23.7,40.5c-9.3,0-16.8-7.5-16.8-16.8C6.9,14.5,14.5,7,23.7,7s16.8,7.5,16.8,16.8
			C40.5,33,33,40.5,23.7,40.5z"/>
		<path style="fill:#00B4DC;" d="M23.7,8.9c8.2,0,14.9,6.7,14.9,14.9S32,38.6,23.7,38.6S8.8,32,8.8,23.8S15.5,8.9,23.7,8.9
			 M23.7,5.1C13.4,5.1,5,13.4,5,23.8s8.4,18.7,18.7,18.7s18.7-8.4,18.7-18.7S34,5.1,23.7,5.1L23.7,5.1z"/>
	</g>
	<g style="opacity:0.65;">
		<path style="fill:#00B4DC;" d="M23.7,11.4c6.8,0,12.4,5.5,12.4,12.4s-5.5,12.4-12.4,12.4s-12.4-5.5-12.4-12.4S16.9,11.4,23.7,11.4
			 M23.7,8.9c-8.2,0-14.9,6.7-14.9,14.9s6.7,14.9,14.9,14.9S38.6,32,38.6,23.8S32,8.9,23.7,8.9L23.7,8.9z"/>
	</g>

		<text transform="matrix(1 0 0 1 20.229 28.1035)" style="display:none;fill:#FFFFFF; font-family:'MyriadPro-Regular'; font-size:15.2066;">8</text>
</g>
</svg>
