<?xml version="1.0" encoding="utf-8"?>
<!-- Generator: Adobe Illustrator 16.0.0, SVG Export Plug-In . SVG Version: 6.00 Build 0)  -->
<!DOCTYPE svg PUBLIC "-//W3C//DTD SVG 1.1//EN" "http://www.w3.org/Graphics/SVG/1.1/DTD/svg11.dtd">
<svg version="1.1" id="Layer_1" xmlns="http://www.w3.org/2000/svg" xmlns:xlink="http://www.w3.org/1999/xlink" x="0px" y="0px"
	 width="32.5px" height="50px" viewBox="0 0 32.5 50" enable-background="new 0 0 32.5 50" xml:space="preserve">
<g>
	<path fill="#FF0027" d="M16.25,50.057L16.25,50.057c0,0,16.092-24.711,16.092-32.873c0-11.955-8.16-17.127-16.092-17.242
		c-7.931,0-16.092,5.173-16.092,17.242C0.158,25.345,16.25,50.057,16.25,50.057L16.25,50.057z"/>
</g>
<circle fill="#BC002D" cx="16.25" cy="16.458" r="13.958"/>
<g opacity="0.8">
	<g>
		<path fill="#FFFFFF" d="M24.162,8.553c-0.865-1.311-2.24-2.128-4.089-2.432c-0.601-0.098-1.199-0.148-1.779-0.148
			c-3.044,0-5.722,1.344-7.743,3.887c-1.313,1.65-2.276,3.724-2.784,5.998c-0.486,2.172-0.512,4.412-0.075,6.307l0.003,0.014
			c0.381,1.524,1.759,3.669,3.628,3.669c0.572,0,1.422-0.213,2.224-1.232c0.332-0.417,0.604-0.835,0.845-1.204
			c0.641-0.986,0.934-1.357,1.476-1.357c0.127,0,0.273,0.019,0.434,0.058c0.45-1.34,0.888-2.622,1.038-2.983
			c0.148-0.365,0.426-0.87,0.822-1.501c-0.031-0.08-0.059-0.161-0.082-0.244c-0.201-0.731-0.107-1.605,0.268-2.526
			c0.369-0.9,0.949-1.657,1.675-2.187c0.657-0.479,1.398-0.747,2.087-0.756h0.011c0.122,0,0.239,0.023,0.349,0.069
			c0.194,0.079,0.356,0.223,0.459,0.405c0.163,0.295,0.153,0.658-0.029,0.943c-0.104,0.163-0.087,0.272,0.124,0.833
			c0.241,0.637,0.569,1.511,0.161,2.634c-0.482,1.324-1.242,1.897-1.799,2.147c-0.16,0.731-0.316,1.287-0.467,1.649
			c-0.043,0.107-0.127,0.293-0.238,0.533c0.676-0.515,1.331-1.187,1.932-1.997c1.378-1.861,2.304-4.232,2.477-6.342
			C25.223,11.14,24.902,9.674,24.162,8.553z M10.944,18.376c-0.84,0-1.52-0.68-1.52-1.52c0-0.84,0.68-1.52,1.52-1.52
			c0.839,0,1.52,0.68,1.52,1.52C12.464,17.696,11.783,18.376,10.944,18.376z M12.632,14.322c-0.839,0-1.52-0.68-1.52-1.52
			c0-0.839,0.68-1.52,1.52-1.52c0.84,0,1.521,0.68,1.521,1.52C14.153,13.643,13.473,14.322,12.632,14.322z M15.673,11.283
			c-0.839,0-1.52-0.681-1.52-1.521s0.681-1.52,1.52-1.52s1.519,0.68,1.519,1.52S16.513,11.283,15.673,11.283z M20.37,10.953
			c-0.839,0-1.519-0.68-1.519-1.52c0-0.84,0.68-1.52,1.519-1.52c0.841,0,1.521,0.68,1.521,1.52
			C21.892,10.271,21.211,10.953,20.37,10.953z"/>
		<path fill="#FFFFFF" d="M22.226,12.759c-0.017-0.033-0.046-0.058-0.079-0.071c-0.02-0.008-0.043-0.012-0.062-0.012
			c-0.994,0.012-2.379,0.79-3.068,2.47c-0.312,0.764-0.395,1.468-0.237,2.036c0.04,0.148,0.097,0.286,0.169,0.412l1.816,0.754
			c0.09-0.023,0.182-0.054,0.268-0.092c0.422-0.187,1.009-0.636,1.402-1.716c0.312-0.856,0.062-1.52-0.158-2.104
			c-0.211-0.56-0.377-1.001-0.054-1.51C22.254,12.874,22.256,12.811,22.226,12.759z M21.943,16.275
			c-0.002,0.033-0.051,0.811-0.875,1.33c-0.017,0.009-0.031,0.019-0.047,0.025c-0.146,0.061-0.314,0.008-0.4-0.126
			c-0.045-0.073-0.06-0.159-0.041-0.244c0.02-0.084,0.072-0.156,0.145-0.201c0.533-0.336,0.572-0.799,0.572-0.818
			c0.008-0.122,0.086-0.232,0.198-0.279c0.011-0.005,0.021-0.008,0.032-0.012c0.036-0.011,0.072-0.015,0.11-0.013
			C21.814,15.944,21.953,16.097,21.943,16.275z"/>
		<path fill="#FFFFFF" d="M18.006,19.417c-0.322,0.784-2.141,6.307-2.219,6.542c-0.123,0.372,0.064,0.78,0.429,0.929
			s0.782-0.01,0.956-0.361c0.109-0.225,2.689-5.443,3.006-6.219c0.16-0.389,0.314-1.005,0.437-1.564l-1.818-0.755
			C18.49,18.473,18.168,19.024,18.006,19.417z"/>
	</g>
</g>
</svg>
