<?xml version="1.0" encoding="utf-8"?>
<!-- Generator: Adobe Illustrator 16.0.0, SVG Export Plug-In . SVG Version: 6.00 Build 0)  -->
<!DOCTYPE svg PUBLIC "-//W3C//DTD SVG 1.1//EN" "http://www.w3.org/Graphics/SVG/1.1/DTD/svg11.dtd">
<svg version="1.1" id="Layer_1" xmlns="http://www.w3.org/2000/svg" xmlns:xlink="http://www.w3.org/1999/xlink" x="0px" y="0px"
	 width="32.5px" height="50px" viewBox="0 0 39 60" enable-background="new 0 0 39 60" xml:space="preserve">
<g>
	<path fill="#FF0027" d="M19.5,60.068L19.5,60.068c0,0,19.311-29.654,19.311-39.447c0-14.346-9.793-20.553-19.311-20.69
		c-9.517,0-19.311,6.207-19.311,20.69C0.189,30.414,19.5,60.068,19.5,60.068L19.5,60.068z"/>
</g>
<circle fill="#BC002D" cx="19.5" cy="19.75" r="16.75"/>
<g>
	<g>
		<path fill="#FFFFFF" d="M28.994,10.263c-1.037-1.573-2.688-2.554-4.906-2.918c-0.721-0.118-1.439-0.178-2.135-0.178
			c-3.653,0-6.867,1.613-9.292,4.664c-1.576,1.98-2.731,4.469-3.341,7.198c-0.583,2.606-0.614,5.294-0.09,7.568l0.004,0.017
			c0.457,1.829,2.111,4.404,4.354,4.404c0.686,0,1.706-0.256,2.668-1.479c0.398-0.5,0.725-1.002,1.014-1.445
			c0.769-1.183,1.121-1.629,1.771-1.629c0.153,0,0.328,0.023,0.521,0.07c0.54-1.608,1.065-3.146,1.245-3.58
			c0.179-0.438,0.511-1.044,0.988-1.802c-0.038-0.096-0.071-0.193-0.099-0.293c-0.241-0.878-0.129-1.926,0.321-3.031
			c0.443-1.08,1.14-1.988,2.01-2.624c0.788-0.574,1.678-0.896,2.504-0.907h0.013c0.146,0,0.288,0.028,0.419,0.083
			c0.233,0.095,0.427,0.268,0.55,0.486c0.196,0.354,0.184,0.789-0.035,1.132c-0.125,0.196-0.104,0.327,0.149,1
			c0.29,0.765,0.684,1.813,0.194,3.161c-0.579,1.588-1.491,2.276-2.16,2.576c-0.191,0.878-0.379,1.544-0.559,1.979
			c-0.052,0.129-0.152,0.352-0.287,0.64c0.812-0.618,1.598-1.424,2.318-2.396c1.654-2.234,2.765-5.079,2.973-7.611
			C30.267,13.368,29.882,11.609,28.994,10.263z M13.133,22.051c-1.008,0-1.824-0.816-1.824-1.824c0-1.008,0.816-1.824,1.824-1.824
			c1.007,0,1.824,0.816,1.824,1.824C14.957,21.235,14.14,22.051,13.133,22.051z M15.159,17.187c-1.007,0-1.824-0.816-1.824-1.824
			c0-1.007,0.816-1.824,1.824-1.824c1.008,0,1.825,0.816,1.825,1.824C16.984,16.371,16.167,17.187,15.159,17.187z M18.808,13.539
			c-1.007,0-1.824-0.817-1.824-1.825s0.817-1.824,1.824-1.824c1.007,0,1.823,0.816,1.823,1.824
			C20.631,12.722,19.815,13.539,18.808,13.539z M24.444,13.143c-1.006,0-1.822-0.816-1.822-1.824c0-1.008,0.816-1.824,1.822-1.824
			c1.009,0,1.825,0.816,1.825,1.824C26.27,12.326,25.453,13.143,24.444,13.143z"/>
		<path fill="#FFFFFF" d="M26.671,15.311c-0.021-0.039-0.056-0.069-0.096-0.085c-0.022-0.01-0.05-0.014-0.075-0.014
			c-1.193,0.014-2.854,0.948-3.681,2.964c-0.375,0.916-0.473,1.761-0.285,2.443c0.048,0.178,0.116,0.343,0.202,0.494l2.181,0.905
			c0.108-0.028,0.217-0.065,0.321-0.111c0.506-0.224,1.21-0.763,1.683-2.059c0.375-1.028,0.075-1.824-0.191-2.525
			c-0.252-0.671-0.452-1.201-0.064-1.812C26.705,15.449,26.707,15.373,26.671,15.311z M26.332,19.53
			c-0.002,0.039-0.061,0.973-1.05,1.596c-0.02,0.011-0.038,0.022-0.057,0.03c-0.175,0.073-0.377,0.01-0.479-0.152
			c-0.054-0.087-0.072-0.191-0.05-0.292c0.023-0.101,0.086-0.188,0.173-0.242c0.64-0.403,0.688-0.959,0.688-0.982
			c0.009-0.146,0.103-0.278,0.237-0.335c0.013-0.006,0.025-0.01,0.038-0.014c0.044-0.013,0.087-0.018,0.133-0.016
			C26.178,19.133,26.344,19.316,26.332,19.53z"/>
		<path fill="#FFFFFF" d="M21.607,23.301c-0.386,0.941-2.569,7.569-2.663,7.851c-0.147,0.447,0.077,0.936,0.515,1.114
			s0.938-0.011,1.147-0.434c0.131-0.268,3.228-6.531,3.608-7.462c0.192-0.467,0.377-1.206,0.523-1.877l-2.182-0.906
			C22.188,22.168,21.801,22.829,21.607,23.301z"/>
	</g>
</g>
</svg>
