<svg xmlns="http://www.w3.org/2000/svg" width="32.5" height="50" viewBox="0 0 32.5 50">
  <path fill="#FF0027" d="M16.25 50.057s16.092-24.71 16.092-32.873C32.342 5.23 24.182.057 16.25-.058 8.32-.058.158 5.115.158 17.184c0 8.16 16.092 32.873 16.092 32.873z"/>
  <circle fill="#BC002D" cx="16.25" cy="16.458" r="13.958"/>
  <g fill="#FFF" opacity=".8">
    <path d="M24.162 8.553c-.865-1.31-2.24-2.128-4.09-2.432-.6-.09-1.198-.14-1.778-.14-3.044 0-5.722 1.347-7.743 3.89-1.31 1.65-2.27 3.725-2.78 6-.48 2.17-.51 4.41-.07 6.306l.005.014c.38 1.522 1.76 3.667 3.628 3.667.573 0 1.423-.21 2.225-1.23.33-.417.605-.835.846-1.204.64-.985.935-1.356 1.477-1.356.128 0 .274.02.435.058.45-1.34.89-2.62 1.04-2.982.15-.365.43-.87.824-1.5-.03-.08-.06-.162-.083-.245-.2-.73-.105-1.606.27-2.527.37-.9.95-1.66 1.675-2.19.658-.48 1.4-.743 2.088-.752h.01c.123 0 .24.02.35.07.194.076.356.22.46.402.162.293.152.656-.03.94-.104.164-.087.273.124.834.24.637.57 1.51.16 2.634-.48 1.324-1.24 1.897-1.8 2.147-.16.73-.314 1.288-.465 1.65-.045.107-.13.293-.24.533.676-.517 1.33-1.19 1.932-2C24 17.273 24.926 14.9 25.1 12.79c.132-1.65-.19-3.117-.93-4.238zm-13.218 9.823c-.84 0-1.52-.68-1.52-1.52s.68-1.52 1.52-1.52 1.52.68 1.52 1.52-.68 1.52-1.52 1.52zm1.688-4.054c-.84 0-1.52-.68-1.52-1.52s.68-1.52 1.52-1.52 1.52.68 1.52 1.52-.68 1.52-1.52 1.52zm3.04-3.04c-.838 0-1.52-.68-1.52-1.52s.682-1.52 1.52-1.52 1.52.68 1.52 1.52-.68 1.52-1.52 1.52zm4.698-.33c-.84 0-1.52-.68-1.52-1.52s.68-1.52 1.52-1.52 1.52.68 1.52 1.52c.002.84-.68 1.52-1.52 1.52z"/>
    <path d="M22.226 12.76c-.017-.034-.046-.06-.08-.072-.02-.008-.042-.012-.06-.012-.995.012-2.38.79-3.07 2.47-.31.764-.394 1.468-.236 2.036.04.148.097.286.17.412l1.815.754c.09-.023.182-.054.268-.092.422-.187 1.01-.636 1.402-1.716.312-.856.062-1.52-.158-2.104-.21-.56-.377-1-.054-1.51.03-.052.033-.115.003-.167zm-.283 3.515c-.002.033-.05.81-.875 1.33-.017.01-.03.02-.047.025-.14.06-.31.008-.4-.126-.04-.073-.06-.16-.04-.244.02-.084.08-.156.15-.2.538-.337.57-.8.57-.82.01-.12.09-.23.2-.278l.03-.012c.04-.01.07-.015.11-.013.18.007.32.16.31.338zm-3.937 3.142c-.322.784-2.14 6.307-2.22 6.542-.122.37.065.78.43.92s.782-.01.956-.36c.11-.228 2.69-5.446 3.006-6.22.16-.39.314-1.007.437-1.566l-1.818-.755c-.307.483-.63 1.034-.79 1.427z"/>
  </g>
</svg>
